<svg width="25" height="27" viewBox="0 0 25 27" fill="none" xmlns="http://www.w3.org/2000/svg">
<path d="M5.67383 7.71859H18.7647C18.6488 6.5135 18.1034 5.59763 16.8625 5.30239C16.8352 5.29636 16.8011 5.28431 16.7738 5.27829C15.9556 5.07342 15.3556 4.82638 15.3556 4.03102V2.78978C15.3556 1.25329 13.9579 0 12.2193 0C10.4806 0 9.08292 1.24727 9.08292 2.78978V4.03102C9.08292 4.82035 8.48292 5.0674 7.66474 5.27226C7.63746 5.27829 7.60337 5.29636 7.56928 5.30239C6.32837 5.59763 5.80337 6.5135 5.67383 7.71859ZM12.2193 1.95827C12.7375 1.95827 13.1602 2.33185 13.1602 2.78978C13.1602 3.25374 12.7375 3.62129 12.2193 3.62129C11.7011 3.62129 11.2784 3.24771 11.2784 2.78978C11.2784 2.33185 11.7011 1.95827 12.2193 1.95827Z" fill="black"/>
<path d="M22.3506 1.87402H17.3324V2.74771C17.3324 3.38641 17.9256 3.86242 18.6278 3.86242H21.1642C21.621 3.86242 21.9892 4.20587 22.0097 4.6156L22.0165 24.3308C21.996 24.7165 21.6551 25.0298 21.2324 25.0599L3.20511 25.0659C2.78239 25.0358 2.4483 24.7225 2.42102 24.3369L2.4142 4.6156C2.43466 4.20587 2.81648 3.86242 3.26648 3.86242H5.80966C6.51193 3.86242 7.10511 3.38641 7.10511 2.74771V1.87402H2.08693C1.05739 1.87402 0.21875 2.66336 0.21875 3.5973V25.313C0.21875 26.2469 1.05739 27.0001 2.08693 27.0001H12.2188H22.3506C23.3801 27.0001 24.2188 26.2469 24.2188 25.313V3.5973C24.2188 2.66336 23.3801 1.87402 22.3506 1.87402Z" fill="black"/>
<path d="M12.2184 9.64697H4.58203V10.611H12.2184V9.64697Z" fill="black"/>
<path d="M15.4911 15.4312H4.58203V16.3952H15.4911V15.4312Z" fill="black"/>
<path d="M13.3775 21.2158H4.58203V22.1799H13.3775V21.2158Z" fill="black"/>
<path d="M16.582 18.3232H4.58203V19.2873H16.582V18.3232Z" fill="black"/>
<path d="M18.7639 12.5391H4.58203V13.5031H18.7639V12.5391Z" fill="black"/>
</svg>
