<svg width="34" height="34" viewBox="0 0 34 34" fill="none" xmlns="http://www.w3.org/2000/svg">
<g clip-path="url(#clip0_812_4713)">
<path d="M20.6816 11.3888L15.228 17.9298L13.3188 15.6409C13.1403 15.4267 12.9214 15.2497 12.6745 15.1201C12.4276 14.9905 12.1576 14.9108 11.8799 14.8856C11.6022 14.8604 11.3223 14.8901 11.0561 14.973C10.7899 15.0559 10.5426 15.1905 10.3284 15.369C10.1142 15.5475 9.93728 15.7664 9.80769 16.0133C9.67811 16.2602 9.59842 16.5302 9.57317 16.8079C9.54793 17.0856 9.57763 17.3655 9.66057 17.6317C9.74351 17.8979 9.87807 18.1452 10.0566 18.3594L13.5969 22.6094C13.7958 22.8488 14.0451 23.0415 14.3269 23.1739C14.6087 23.3062 14.9162 23.3749 15.2275 23.3751C15.5388 23.3753 15.8464 23.307 16.1283 23.175C16.4103 23.0431 16.6598 22.8506 16.8591 22.6115L23.9438 14.1115C24.1239 13.8974 24.2599 13.6499 24.3441 13.3832C24.4283 13.1165 24.459 12.8357 24.4344 12.5571C24.4098 12.2785 24.3305 12.0075 24.2009 11.7596C24.0714 11.5117 23.8941 11.2918 23.6794 11.1126C23.4646 10.9334 23.2166 10.7983 22.9496 10.7152C22.6825 10.632 22.4016 10.6024 22.1231 10.6281C21.8446 10.6538 21.5739 10.7342 21.3265 10.8647C21.0791 10.9953 20.8599 11.1734 20.6816 11.3888Z" fill="#008E17"/>
<path d="M17 0C13.6377 0 10.3509 0.997033 7.55531 2.86502C4.75968 4.733 2.58075 7.38804 1.29406 10.4944C0.00736586 13.6007 -0.329291 17.0189 0.326658 20.3165C0.982607 23.6142 2.6017 26.6433 4.97919 29.0208C7.35668 31.3983 10.3858 33.0174 13.6835 33.6733C16.9811 34.3293 20.3993 33.9926 23.5056 32.706C26.612 31.4193 29.267 29.2403 31.135 26.4447C33.003 23.6491 34 20.3623 34 17C33.9952 12.4928 32.2026 8.17156 29.0155 4.98449C25.8284 1.79741 21.5072 0.00480001 17 0ZM17 29.75C14.4783 29.75 12.0132 29.0022 9.91649 27.6012C7.81976 26.2002 6.18556 24.209 5.22054 21.8792C4.25553 19.5495 4.00303 16.9859 4.495 14.5126C4.98696 12.0393 6.20128 9.76751 7.9844 7.98439C9.76752 6.20127 12.0393 4.98695 14.5126 4.49499C16.9859 4.00303 19.5495 4.25552 21.8792 5.22054C24.209 6.18555 26.2003 7.81975 27.6012 9.91648C29.0022 12.0132 29.75 14.4783 29.75 17C29.7463 20.3804 28.4018 23.6213 26.0115 26.0115C23.6213 28.4018 20.3804 29.7463 17 29.75Z" fill="#008E17"/>
</g>
<defs>
<clipPath id="clip0_812_4713">
<rect width="34" height="34" fill="white"/>
</clipPath>
</defs>
</svg>
