<svg width="36" height="36" viewBox="0 0 36 36" fill="none" xmlns="http://www.w3.org/2000/svg">
<path d="M6.19961 3.5001L3.49961 6.2001C2.79961 6.9001 2.79961 8.1001 3.49961 8.9001L12.6996 18.1001L3.49961 27.3001C2.79961 28.0001 2.79961 29.2001 3.49961 30.0001L6.09961 32.6001C6.79961 33.3001 7.99961 33.3001 8.79961 32.6001L17.9996 23.4001L27.1996 32.6001C27.8996 33.3001 29.0996 33.3001 29.8996 32.6001L32.4996 30.0001C33.1996 29.3001 33.1996 28.1001 32.4996 27.3001L23.2996 18.0001L32.4996 8.8001C33.1996 8.1001 33.1996 6.9001 32.4996 6.1001L29.8996 3.5001C29.1996 2.8001 27.9996 2.8001 27.1996 3.5001L17.9996 12.7001L8.79961 3.5001C8.09961 2.8001 6.89961 2.8001 6.19961 3.5001Z" fill="#FF725E"/>
</svg>
