<svg width="34" height="34" viewBox="0 0 34 34" fill="none" xmlns="http://www.w3.org/2000/svg">
<path d="M27.2001 17.2494C27.2001 16.5467 27.1321 15.8214 27.0188 15.1414H17.2041V19.1534H22.8254C22.5988 20.4454 21.8508 21.5787 20.7401 22.304L24.0948 24.9107C26.0668 23.0747 27.2001 20.4 27.2001 17.2494Z" fill="#4280EF"/>
<path d="M17.2045 27.404C20.0151 27.404 22.3725 26.4747 24.0951 24.888L20.7405 22.304C19.8111 22.9387 18.6098 23.3013 17.2045 23.3013C14.4845 23.3013 12.1951 21.4653 11.3565 19.0173L7.91113 21.6693C9.67913 25.1827 13.2605 27.404 17.2045 27.404Z" fill="#34A353"/>
<path d="M11.356 18.9948C10.9253 17.7028 10.9253 16.2975 11.356 15.0055L7.91066 12.3308C6.43733 15.2775 6.43733 18.7455 7.91066 21.6695L11.356 18.9948Z" fill="#F6B704"/>
<path d="M17.2045 10.7214C18.6778 10.6988 20.1285 11.2654 21.1938 12.2854L24.1631 9.29343C22.2818 7.52543 19.7885 6.57343 17.2045 6.5961C13.2605 6.5961 9.67913 8.81743 7.91113 12.3308L11.3565 15.0054C12.1951 12.5348 14.4845 10.7214 17.2045 10.7214Z" fill="#E54335"/>
</svg>
