<svg width="29" height="29" viewBox="0 0 29 29" fill="none" xmlns="http://www.w3.org/2000/svg">
<path d="M26.2731 14.8999L15.3981 2.81652C14.9401 2.3066 14.0605 2.3066 13.6025 2.81652L2.72751 14.8999C2.57098 15.0734 2.46824 15.2886 2.43177 15.5194C2.3953 15.7503 2.42668 15.9867 2.5221 16.2C2.71543 16.6362 3.14801 16.9166 3.62531 16.9166H6.04197V25.3749C6.04197 25.6954 6.16928 26.0027 6.39589 26.2293C6.62249 26.4559 6.92984 26.5832 7.25031 26.5832H10.8753C11.1958 26.5832 11.5031 26.4559 11.7297 26.2293C11.9563 26.0027 12.0836 25.6954 12.0836 25.3749V20.5416H16.917V25.3749C16.917 25.6954 17.0443 26.0027 17.2709 26.2293C17.4975 26.4559 17.8048 26.5832 18.1253 26.5832H21.7503C22.0708 26.5832 22.3781 26.4559 22.6047 26.2293C22.8313 26.0027 22.9586 25.6954 22.9586 25.3749V16.9166H25.3753C25.6093 16.9176 25.8386 16.8504 26.0351 16.7234C26.2316 16.5964 26.3869 16.4149 26.4821 16.2011C26.5773 15.9873 26.6082 15.7504 26.5711 15.5194C26.534 15.2883 26.4304 15.0731 26.2731 14.8999Z" fill="black"/>
</svg>
