<svg width="498" height="470" viewBox="0 0 498 470" fill="none" xmlns="http://www.w3.org/2000/svg">
<g filter="url(#filter0_d_24_1229)">
<path d="M482.325 225.391L472.366 230.313C472.366 230.313 476.872 238.051 468.221 242.493C466.58 243.378 464.682 243.766 462.791 243.603C460.901 243.44 459.113 242.735 457.676 241.586C456.454 240.638 455.491 239.437 454.865 238.08C454.238 236.723 453.966 235.248 454.071 233.775C454.274 230.365 456.617 226.183 463.962 223.962L452.01 203.178L442.164 208.048L449.193 220.229C449.193 220.229 437.286 230.365 445.419 244.444C453.204 257.928 468.074 254.601 473.662 251.827C477.92 249.72 491.9 241.555 482.325 225.391Z" fill="#EBEBEB"/>
</g>
<path d="M439.526 203.868L449.521 198.922L444.533 190.286L434.539 195.232L439.526 203.868Z" fill="#EBEBEB"/>
<g filter="url(#filter1_d_24_1229)">
<path d="M85.3008 38.0326L94.5383 40.9838C94.5383 40.9838 97.2195 33.809 105.319 36.2597C106.9 36.6948 108.294 37.5778 109.304 38.7844C110.314 39.991 110.891 41.4605 110.952 42.9861C111.025 44.2624 110.77 45.5366 110.208 46.7041C109.646 47.8716 108.793 48.899 107.719 49.702C105.252 51.5896 100.96 52.6637 95.1579 49.702L87.9707 68.9842L97.0956 71.9042L101.32 60.6102C101.32 60.6102 115.267 61.653 120.144 48.5757C124.82 36.0616 113.791 29.2935 108.609 27.6354C104.598 26.3214 90.7532 22.8904 85.3008 38.0326Z" fill="#EBEBEB"/>
</g>
<path d="M95.7019 75.8705L86.4277 72.9043L83.4369 80.9178L92.7111 83.884L95.7019 75.8705Z" fill="#EBEBEB"/>
<g filter="url(#filter2_d_24_1229)">
<path d="M37.2656 27.427L42.6617 25.9879C42.4811 25.4196 42.4257 24.8234 42.4988 24.2349C42.5719 23.6464 42.772 23.0774 43.0872 22.5619C43.4025 22.0464 43.8264 21.5947 44.3338 21.2338C44.8413 20.8728 45.4219 20.61 46.0413 20.4608C46.9361 20.1835 47.9023 20.1732 48.8038 20.4314C49.7052 20.6896 50.4963 21.2033 51.0656 21.8999C51.5606 22.4801 51.8995 23.1609 52.0543 23.8862C52.209 24.6115 52.1752 25.3605 51.9556 26.0713C51.4712 27.7086 49.8602 29.5231 46.0413 29.8986L49.5561 41.1613L54.8958 39.7326L52.8343 33.1418C54.832 31.9574 56.3547 30.1988 57.1687 28.1361C57.9827 26.0733 58.043 23.8202 57.3404 21.7227C55.0873 14.4227 47.4494 14.6209 44.4191 15.4656C42.1435 16.0183 34.4155 18.6463 37.2656 27.427Z" fill="#F5F5F5"/>
</g>
<path d="M55.6744 42.0183L50.2634 43.4669L51.725 48.1453L57.1359 46.6967L55.6744 42.0183Z" fill="#F5F5F5"/>
<g filter="url(#filter3_d_24_1229)">
<path d="M481.818 161.579L473.2 161.36C473.2 161.36 473.008 168.055 465.483 167.982C464.033 167.997 462.613 167.591 461.424 166.823C460.234 166.054 459.334 164.961 458.848 163.696C458.424 162.639 458.276 161.504 458.417 160.383C458.558 159.263 458.984 158.19 459.659 157.251C461.191 155.051 464.447 153.08 470.226 154.206L470.766 136.217L462.239 135.998L461.934 146.541C461.934 146.541 449.892 149.086 449.543 161.287C449.193 172.946 460.414 175.949 465.246 176.075C468.908 176.168 481.559 175.657 481.818 161.579Z" fill="#E0E0E0"/>
</g>
<path d="M462.248 132.312L470.897 132.532L471.119 125.058L462.471 124.837L462.248 132.312Z" fill="#E0E0E0"/>
<path d="M326.514 434.846V461.22H368.174H414.125V434.846H326.514Z" fill="#F5F5F5"/>
<path d="M322.831 427.474V434.846H417.189V427.474H368.173H322.831Z" fill="#E0E0E0"/>
<path d="M370.009 461.22H414.124V434.846H417.189V427.474H368.173V434.169L370.009 461.22Z" fill="#E0E0E0"/>
<path d="M356.525 439.101H338.76V443.074H356.525V439.101Z" fill="#E0E0E0"/>
<path d="M359.285 448.038H336.473V456.423H359.285V448.038Z" fill="white"/>
<path d="M29.988 357.655C24.8976 354.687 19.14 352.839 13.1576 352.253C10.4089 351.992 7.41234 352.065 5.20434 353.609C4.94922 353.744 4.73816 353.94 4.59343 354.177C4.4487 354.413 4.37565 354.682 4.38197 354.954C4.51062 355.338 4.78728 355.664 5.15928 355.872C12.0086 360.71 22.3614 361.315 29.943 357.613" fill="#E0E0E0"/>
<path d="M29.5601 357.217C25.6621 354.567 22.0243 351.605 18.6891 348.363C15.3409 345.101 12.9888 341.073 11.8736 336.694C11.6536 336.046 11.588 335.362 11.6814 334.688C11.7747 334.015 12.0248 333.368 12.4143 332.793C21.0774 339.05 27.8816 347.153 29.5601 357.217Z" fill="#E0E0E0"/>
<path d="M29.8979 357.592C29.0916 353.217 29.1603 348.742 30.1007 344.39C31.0711 340.001 33.7845 336.108 37.7048 333.482C39.2031 336.725 38.561 340.458 37.502 343.837C35.8621 349.073 33.317 354.028 29.9655 358.51" fill="#E0E0E0"/>
<path d="M38.3921 371.681C33.2326 372.265 28.749 374.81 24.8737 378.011C21.0037 381.268 18.313 385.551 17.1682 390.275C22.2263 389.983 26.5184 386.688 29.6277 382.975C32.7369 379.263 34.8886 375.206 38.3132 371.744" fill="#E0E0E0"/>
<path d="M40.2396 373.934C38.1999 369.156 37.4829 363.982 38.1538 358.882C38.8247 353.782 40.8623 348.919 44.0811 344.734C47.0213 354.412 45.9399 365.341 40.2396 373.934Z" fill="#E0E0E0"/>
<path d="M51.4602 386.302C46.7461 386.032 42.0503 387.05 37.9565 389.231C33.8627 391.411 30.5513 394.657 28.4339 398.566C28.1522 399.097 27.8931 399.765 28.2762 400.245C28.4768 400.422 28.7211 400.552 28.988 400.623C29.2549 400.694 29.5364 400.704 29.8083 400.651C34.3144 400.38 38.3586 397.856 41.6819 394.978C45.0052 392.1 47.8891 388.784 51.5503 386.291" fill="#E0E0E0"/>
<path d="M51.0992 385.624C48.6894 378.424 48.5409 370.739 50.6712 363.464C51.5161 360.606 52.9242 357.603 55.7856 356.268C55.8988 356.198 56.0259 356.15 56.1594 356.127C56.2929 356.104 56.4302 356.106 56.5629 356.132C56.7896 356.251 56.9648 356.439 57.0586 356.664C58.0146 358.662 58.4284 360.846 58.264 363.026C58.0797 365.195 57.703 367.347 57.1375 369.46C56.2475 373.402 55.7631 377.625 53.4312 381.015C52.9004 381.829 52.4227 382.672 52.0005 383.538C51.5611 384.394 51.5499 384.706 51.1443 385.384" fill="#E0E0E0"/>
<path d="M80.8059 389.733C78.6091 381.984 80.941 372.588 86.2132 366.237C86.6075 365.768 87.1144 365.267 87.7566 365.32C88.7254 365.403 88.9732 366.602 88.8831 367.499C88.4795 375.47 85.6608 383.175 80.7495 389.733" fill="#E0E0E0"/>
<path d="M83.4873 391.422C93.6261 393.873 105.319 391.495 113.78 385.718C108.709 383.361 102.912 382.705 97.3774 383.862C91.9025 385.019 86.8894 387.293 83.4873 391.422Z" fill="#E0E0E0"/>
<path d="M85.7406 386.26C91.4408 377.667 102.357 372.057 113.239 371.546C111.989 375.644 108.35 378.846 104.227 380.754C100.104 382.662 95.5414 383.518 91.024 384.321C89.2666 384.644 86.8558 384.988 85.718 386.26" fill="#E0E0E0"/>
<path d="M81.3808 361.232C83.1068 356.387 84.2848 351.389 84.8956 346.319C85.3236 341.241 84.5463 335.891 81.6962 331.573C76.3677 341.105 75.8382 352.243 81.2231 361.743" fill="#E0E0E0"/>
<path d="M99.281 352.847C105.511 342.419 118.207 334.014 131.049 332.846C126.092 344.265 112.574 353.087 99.281 352.847Z" fill="#E0E0E0"/>
<path d="M95.3726 354.902C104.655 356.205 112.552 361.691 121.283 365.017C123.099 365.833 125.116 366.193 127.129 366.06C128.067 366.054 128.98 365.78 129.743 365.276C130.507 364.773 131.084 364.063 131.397 363.245C131.71 362.427 131.742 361.539 131.491 360.703C131.239 359.867 130.715 359.123 129.991 358.572C128.766 357.522 127.326 356.71 125.755 356.184C116.304 352.545 106.176 352.451 96.2287 354.662" fill="#E0E0E0"/>
<path d="M89.9987 360.919C92.1053 361.482 92.815 362.483 94.5048 363.797C100.161 368.249 106.849 371.436 114.05 373.11C114.794 373.287 115.774 373.35 116.145 372.724C116.517 372.098 116.067 371.514 115.639 371.024C112.485 367.606 108.395 365.038 103.799 363.589C99.2926 362.024 95.361 360.147 89.9536 360.554" fill="#E0E0E0"/>
<path d="M83.9382 324.534C87.7474 327.777 92.246 330.248 97.1461 331.788C102.046 333.329 107.24 333.906 112.394 333.482C112.868 333.489 113.328 333.337 113.69 333.054C114.4 332.334 113.543 331.219 112.71 330.614C104.34 324.576 94.2122 322.073 83.9382 324.524" fill="#E0E0E0"/>
<path d="M91.1252 322.104C96.1596 318.671 102.001 316.389 108.17 315.447C114.34 314.504 120.663 314.927 126.622 316.681C121.983 320.664 116.031 323.085 109.724 323.554C103.484 324.08 97.1934 323.589 91.1365 322.104" fill="#E0E0E0"/>
<path d="M88.2753 305.377C87.4529 297.649 87.9824 291.549 87.4079 283.779C87.4079 283.164 87.2164 282.413 86.5855 282.194C85.7181 281.881 84.9858 282.872 84.6929 283.696C83.4791 287.296 83.1689 291.106 83.7858 294.834C84.4027 298.562 85.9304 302.111 88.2528 305.21" fill="#E0E0E0"/>
<path d="M87.667 306.232C93.1213 302.973 97.8233 298.744 101.501 293.791C104.227 290.329 106.536 286.189 105.917 281.934C103.993 281.983 102.104 282.419 100.381 283.211C98.6573 284.004 97.1405 285.133 95.9357 286.522C93.5542 289.32 91.8244 292.544 90.8551 295.992C89.7285 299.391 88.9738 302.895 87.667 306.232Z" fill="#E0E0E0"/>
<path d="M101.253 302.738C113.705 298.469 125.234 292.176 135.297 284.155C131.23 282.643 126.566 283.55 122.511 285.072C113.217 288.535 105.613 294.396 101.106 302.655" fill="#E0E0E0"/>
<path d="M91.5198 310.455C97.8058 311.091 104.193 311.498 110.423 310.549C116.653 309.6 122.342 307.348 128.064 305.116C128.563 304.984 128.99 304.682 129.259 304.271C129.351 304.026 129.36 303.76 129.284 303.51C129.207 303.26 129.049 303.038 128.831 302.874C128.393 302.552 127.88 302.33 127.332 302.227C121.102 300.611 114.388 301.372 108.26 303.27C102.426 305.121 96.8152 307.529 91.5198 310.455Z" fill="#E0E0E0"/>
<path d="M55.6166 324.795C51.3245 316.786 51.6061 307.442 55.3124 299.182C57.9147 302.864 58.2301 307.525 57.757 311.916C57.2838 316.306 55.8419 320.801 55.7518 325.191" fill="#E0E0E0"/>
<path d="M38.4938 316.796C33.1263 316.728 27.8026 317.698 22.8636 319.645C17.9247 321.592 13.4793 324.472 9.81226 328.101C15.2204 328.697 20.6969 327.759 25.5161 325.41C30.314 323.057 34.8431 320.262 39.0345 317.067" fill="#E0E0E0"/>
<path d="M26.9804 313.24C21.7421 312.844 16.7065 312.249 11.6709 313.678C9.12725 314.335 6.7672 315.493 4.75268 317.073C2.73815 318.654 1.11684 320.619 0 322.834C4.94101 323.205 9.89863 322.337 14.352 320.321C18.784 318.319 23.0108 315.949 26.9804 313.24Z" fill="#E0E0E0"/>
<path d="M44.0244 313.397C39.3155 310.539 34.4827 307.64 28.9965 306.451C23.5103 305.262 17.1566 306.138 13.3264 309.966C17.765 312.385 23.1498 312.667 28.298 312.667C33.4463 312.667 39.7549 312.604 44.6102 314.189" fill="#E0E0E0"/>
<path d="M44.0471 313.668C36.0037 306.368 32.9508 293.197 36.1614 283.185C42.5303 292.192 45.318 302.968 44.0471 313.668Z" fill="#E0E0E0"/>
<path d="M66.1948 292.894C67.7156 289.619 68.7746 286.199 70.1377 282.872C71.3852 279.495 73.2947 276.359 75.7703 273.622C78.2881 270.881 81.8687 269.166 85.7402 268.846C84.5027 273.888 82.1422 278.636 78.8097 282.786C75.4771 286.936 71.2458 290.396 66.3863 292.946" fill="#E0E0E0"/>
<path d="M62.2297 297.211C59.7176 294.01 56.8111 289.661 53.409 287.273C50.0068 284.885 45.5233 283.435 41.4001 284.353C43.5524 287.849 46.5559 290.831 50.1719 293.063C53.7879 295.295 57.9166 296.716 62.2297 297.211Z" fill="#E0E0E0"/>
<path d="M62.9841 293.155C61.1824 289.339 59.8521 285.348 59.0187 281.256C58.1953 277.123 58.9018 272.853 61.024 269.138C65.4512 276.876 66.8707 285.177 63.2094 293.248" fill="#E0E0E0"/>
<path d="M66.2285 269.138C68.7407 261.473 76.3673 255.832 84.5121 253.235C85.5246 252.851 86.6225 252.701 87.7115 252.797C88.2561 252.852 88.7711 253.054 89.1919 253.379C89.6128 253.703 89.9207 254.136 90.0772 254.622C90.3701 255.925 89.2098 257.093 88.117 257.959C81.7148 263.02 74.2678 266.824 66.2285 269.138Z" fill="#E0E0E0"/>
<path d="M66.3187 262.87C66.6454 257.927 66.9721 252.911 68.7183 248.27C70.4644 243.63 73.7989 239.187 78.6655 237.143C79.4992 242.139 77.1109 247.103 74.2495 251.399C71.3881 255.696 67.9184 259.742 66.1948 264.539" fill="#E0E0E0"/>
<path d="M66.1953 266.27C64.1224 260.691 63.9422 253.589 60.2922 248.719C57.7688 245.319 53.7245 243.004 51.5503 239.396C50.2441 242.856 50.4379 246.65 52.0911 249.981C53.7357 253.277 55.9974 256.278 58.7714 258.845C61.4526 261.483 63.7394 263.475 66.2291 266.27" fill="#E0E0E0"/>
<path d="M66.2285 430.831C66.0707 430.831 65.9356 393.56 65.9243 347.581C65.913 301.602 66.0369 264.33 66.1947 264.33C66.3524 264.33 66.4876 301.591 66.4988 347.581C66.5101 393.57 66.3974 430.831 66.2285 430.831Z" fill="#E0E0E0"/>
<path d="M101.421 319.174C100.936 319.388 100.43 319.562 99.9119 319.695L95.7437 320.999C92.2289 322.104 87.4074 323.71 82.2253 325.702C77.0433 327.694 72.0865 329.435 69.3603 331.667C68.2511 332.514 67.365 333.584 66.7693 334.796C66.375 335.672 66.3074 336.214 66.2511 336.203C66.1948 336.193 66.2511 336.068 66.2511 335.807C66.3182 335.452 66.42 335.103 66.5553 334.764C67.055 333.473 67.8908 332.316 68.9886 331.396C70.6808 330.066 72.5796 328.98 74.6212 328.173C76.8743 327.204 79.3301 326.202 81.955 325.201C87.2046 323.21 92.0938 321.656 95.6311 320.634C97.3997 320.123 98.8529 319.747 99.8556 319.497C100.365 319.342 100.889 319.233 101.421 319.174Z" fill="#E0E0E0"/>
<path d="M112.924 292.946C112.798 293.099 112.654 293.239 112.496 293.363L111.212 294.49L106.379 298.546L90.3933 311.78C84.1297 316.942 78.7111 321.875 74.9598 325.587C73.0785 327.444 71.5802 328.987 70.5888 330.061C70.1157 330.551 69.7327 330.968 69.4623 331.292C69.3349 331.444 69.1873 331.581 69.0229 331.698C69.1103 331.524 69.2241 331.363 69.3609 331.219C69.6087 330.927 69.9692 330.478 70.4874 329.926C71.445 328.81 72.8757 327.225 74.7232 325.337C79.5677 320.431 84.6933 315.77 90.0778 311.373C96.3639 306.222 102.087 301.591 106.244 298.254L111.189 294.333L112.552 293.29C112.666 293.167 112.791 293.052 112.924 292.946Z" fill="#E0E0E0"/>
<path d="M83.6333 317.025C83.4643 316.963 84.7599 314.168 86.0779 310.622C87.3959 307.077 88.0155 304.094 88.1845 304.125C88.0402 306.411 87.5159 308.662 86.6299 310.8C86.0728 312.324 85.4221 313.818 84.681 315.273C84.4204 315.899 84.0678 316.489 83.6333 317.025Z" fill="#E0E0E0"/>
<path d="M66.2734 339.593C65.9117 339.278 65.587 338.928 65.3046 338.55L62.8262 335.62C60.7534 333.127 57.8807 329.696 54.6588 325.942C51.437 322.188 48.4742 318.819 46.3338 316.379L43.7991 313.48C43.4698 313.14 43.1792 312.769 42.9316 312.375C43.3163 312.663 43.6674 312.988 43.9793 313.344C44.6214 313.991 45.5339 314.94 46.6492 316.129C48.9023 318.506 51.8876 321.844 55.1094 325.608C58.3313 329.373 61.1589 332.846 63.1642 335.39C64.1555 336.662 64.9553 337.705 65.4848 338.425C65.7917 338.787 66.056 339.179 66.2734 339.593Z" fill="#E0E0E0"/>
<path d="M58.5574 330.426C56.9986 328.83 55.8882 326.903 55.3243 324.816C54.7139 322.991 54.4658 321.08 54.5921 319.174H54.8512C54.7272 319.601 54.6484 319.831 54.6033 319.82C54.5583 319.81 54.6033 319.581 54.6033 319.132H54.8624C54.9897 320.993 55.3335 322.835 55.8876 324.628C56.6225 326.619 57.5149 328.557 58.5574 330.426Z" fill="#E0E0E0"/>
<path d="M48.5988 318.819C47.905 318.331 47.1482 317.925 46.3458 317.61C44.3161 317.05 42.1817 316.894 40.0822 317.151C37.9547 317.3 35.8444 317.613 33.7737 318.089C32.9238 318.343 32.0537 318.535 31.1714 318.663C31.9459 318.237 32.7851 317.92 33.661 317.724C35.7353 317.135 37.8738 316.761 40.0372 316.609C42.2174 316.34 44.4354 316.562 46.5035 317.255C47.3726 317.543 48.1111 318.094 48.5988 318.819Z" fill="#E0E0E0"/>
<path d="M46.2325 316.014C46.2325 316.097 44.9145 315.524 42.7741 314.846C37.1686 313.083 31.1692 312.678 25.3466 313.667C23.0935 314.043 21.7755 314.429 21.7417 314.335C22.0248 314.172 22.3323 314.049 22.6542 313.97C23.5103 313.697 24.383 313.47 25.2677 313.292C28.1964 312.704 31.2015 312.511 34.1899 312.718C37.1806 312.93 40.1219 313.545 42.9205 314.543C43.7658 314.843 44.5898 315.191 45.3876 315.586C45.6914 315.688 45.9764 315.832 46.2325 316.014Z" fill="#E0E0E0"/>
<path d="M66.1953 304.126C65.17 301.473 64.3272 298.763 63.6718 296.012C62.828 293.308 62.1732 290.556 61.7117 287.774C62.7392 290.443 63.5821 293.17 64.2351 295.939C65.0766 298.626 65.7313 301.361 66.1953 304.126Z" fill="#E0E0E0"/>
<path d="M66.3527 304.125C65.5471 302.446 64.6135 300.822 63.5589 299.266C62.3757 297.801 60.9937 296.483 59.447 295.345C59.447 295.282 60.1229 295.501 61.0354 296.095C62.2028 296.887 63.2162 297.857 64.032 298.963C65.2885 300.462 66.0897 302.244 66.3527 304.125Z" fill="#E0E0E0"/>
<path d="M66.2286 410.965C66.2286 410.965 66.0484 410.068 65.5977 408.483C64.9293 406.256 64.0275 404.094 62.9053 402.028C60.1228 396.762 55.0196 390.098 48.6322 383.413C45.4441 380.034 42.3461 376.854 39.7213 373.809C37.3666 371.131 35.2387 368.29 33.3564 365.309C32.0947 363.313 31.0206 361.219 30.1458 359.052C29.8529 358.281 29.6276 357.676 29.5149 357.248C29.4271 357.041 29.3703 356.823 29.3459 356.602C29.3459 356.602 29.6952 357.457 30.3598 358.979C31.3107 361.122 32.4407 363.193 33.7394 365.174C35.6643 368.092 37.8101 370.88 40.1607 373.517C42.7967 376.53 45.8947 379.69 49.094 383.069C55.5378 389.764 60.5959 396.522 63.2996 401.84C64.3974 403.941 65.2508 406.143 65.8456 408.41C66.0258 409.224 66.1497 409.849 66.1948 410.277C66.2355 410.504 66.2468 410.735 66.2286 410.965Z" fill="#E0E0E0"/>
<path d="M98.0304 377.719C97.4938 378.038 96.9371 378.328 96.3631 378.585C94.8557 379.369 93.4102 380.25 92.0373 381.223C90.0278 382.684 88.1445 384.288 86.4046 386.02C84.4106 387.971 82.3603 390.192 80.265 392.653C76.0743 397.523 72.154 401.82 69.8108 405.261C68.6167 406.961 67.7492 408.389 67.186 409.432C66.914 409.968 66.6054 410.487 66.2622 410.986C66.2994 410.836 66.3522 410.689 66.4199 410.548C66.5438 410.267 66.7128 409.849 66.9832 409.338C67.713 407.871 68.5407 406.446 69.4616 405.073C71.7146 401.559 75.6237 397.2 79.8031 392.34C81.9097 389.91 83.9826 387.637 86.0103 385.697C87.8063 383.966 89.7544 382.375 91.8345 380.942C93.2512 379.976 94.7594 379.132 96.3406 378.418C96.8926 378.157 97.3432 378.001 97.6361 377.886C97.929 377.771 98.0191 377.699 98.0304 377.719Z" fill="#E0E0E0"/>
<path d="M98.6501 388.502C97.4922 388.736 96.3175 388.893 95.1353 388.972C92.3046 389.241 89.5066 389.751 86.7765 390.494C84.0779 391.305 81.5484 392.536 79.2963 394.134C77.5727 395.364 76.7616 396.386 76.6827 396.324C76.6039 396.261 76.8179 396.032 77.2009 395.573C77.7513 394.939 78.3662 394.356 79.0372 393.831C81.2699 392.116 83.8353 390.81 86.5962 389.983C89.3615 389.224 92.2112 388.758 95.0903 388.596C96.2712 388.463 97.4629 388.431 98.6501 388.502Z" fill="#E0E0E0"/>
<path d="M77.7084 395.145C77.5282 395.041 79.1166 392.799 80.3445 389.785C81.5724 386.771 81.7752 384.06 81.978 384.091C82.0847 384.671 82.0847 385.263 81.978 385.843C81.8032 387.264 81.4594 388.663 80.9528 390.014C80.4126 391.338 79.7255 392.607 78.9025 393.8C78.5844 394.304 78.1813 394.758 77.7084 395.145Z" fill="#E0E0E0"/>
<path d="M108.327 348.759C108.153 348.872 107.963 348.963 107.764 349.03L106.108 349.729C105.387 350.021 104.508 350.386 103.517 350.866C102.525 351.346 101.354 351.836 100.137 352.503L98.2107 353.546C97.546 353.901 96.8926 354.328 96.1942 354.724C94.7747 355.527 93.3553 356.508 91.8345 357.509C85.3547 361.974 79.7011 367.384 75.0942 373.527C74.0691 374.956 73.0552 376.311 72.2441 377.698C71.8273 378.355 71.3992 378.981 71.0387 379.607L70.0136 381.421C69.3264 382.568 68.887 383.653 68.3576 384.55C67.8281 385.447 67.5127 386.312 67.231 386.99C66.9494 387.668 66.7241 388.137 66.5326 388.544C66.4639 388.73 66.3732 388.908 66.2622 389.076C66.2883 388.881 66.3453 388.692 66.4312 388.513C66.5889 388.095 66.7804 387.564 67.017 386.917C67.2536 386.27 67.614 385.384 68.0759 384.435C68.5378 383.486 68.9884 382.349 69.6531 381.213C69.9798 380.629 70.3065 380.013 70.6557 379.377C71.0049 378.741 71.433 378.105 71.7822 377.427C72.5821 376.071 73.5847 374.705 74.6098 373.256C76.921 370.156 79.4938 367.23 82.304 364.506C85.1523 361.815 88.222 359.333 91.4853 357.081C93.0173 356.091 94.4593 355.121 95.9013 354.328C96.611 353.932 97.2756 353.515 97.9515 353.171L99.9117 352.18C101.14 351.523 102.311 351.054 103.291 350.605C104.154 350.217 105.038 349.869 105.939 349.562L107.64 348.957C107.857 348.86 108.088 348.793 108.327 348.759Z" fill="#E0E0E0"/>
<path d="M83.1604 364.371C83.4 363.618 83.8838 362.952 84.546 362.462C86.108 361.201 88.1059 360.498 90.1787 360.481C92.1904 360.465 94.1854 360.82 96.0479 361.524C96.8498 361.768 97.6089 362.119 98.301 362.567C97.4971 362.42 96.7091 362.207 95.9465 361.93C94.1075 361.349 92.1783 361.05 90.235 361.044C88.3059 361.086 86.4406 361.692 84.9065 362.775C84.2877 363.271 83.7044 363.804 83.1604 364.371Z" fill="#E0E0E0"/>
<path d="M79.3979 367.958C80.1462 366.439 80.68 364.837 80.9864 363.192C81.1031 361.523 80.9819 359.847 80.6259 358.207C80.9644 358.618 81.1923 359.097 81.2905 359.605C81.6267 360.795 81.7185 362.033 81.5609 363.255C81.4213 364.474 81.0394 365.658 80.4344 366.748C79.8936 367.572 79.4543 368 79.3979 367.958Z" fill="#E0E0E0"/>
<path d="M38.426 416.304C39.2935 430.55 43.9235 445.035 51.0657 459.687H82.0791C88.8383 445.181 93.198 430.717 93.964 416.304H38.426Z" fill="#E0E0E0"/>
<path d="M88.9397 439.352C88.9397 439.508 78.7221 439.623 66.1275 439.623C53.5328 439.623 43.3152 439.508 43.3152 439.352C43.3152 439.195 53.5328 439.091 66.1275 439.091C78.7221 439.091 88.9397 439.206 88.9397 439.352Z" fill="#FAFAFA"/>
<path d="M88.2411 444.513C88.2411 444.67 78.6656 444.784 66.837 444.784C55.0084 444.784 45.4329 444.67 45.4329 444.513C45.4329 444.357 55.0084 444.242 66.837 444.242C78.6656 444.242 88.2411 444.367 88.2411 444.513Z" fill="#FAFAFA"/>
<path d="M51.5612 425.659C51.9517 430.059 51.9517 434.482 51.5612 438.882C51.1707 434.482 51.1707 430.059 51.5612 425.659Z" fill="#FAFAFA"/>
<path d="M68.178 425.659C68.5685 430.216 68.5685 434.794 68.178 439.351C67.7874 434.794 67.7874 430.216 68.178 425.659Z" fill="#FAFAFA"/>
<path d="M83.7802 425.544C84.1707 430.191 84.1707 434.86 83.7802 439.508C83.3897 434.86 83.3897 430.191 83.7802 425.544Z" fill="#FAFAFA"/>
<path d="M92.9837 425.659C92.9837 425.805 80.9974 425.93 66.2285 425.93C51.4597 425.93 39.4734 425.805 39.4734 425.659C39.4734 425.513 51.4484 425.388 66.2285 425.388C81.0086 425.388 92.9837 425.513 92.9837 425.659Z" fill="#FAFAFA"/>
<g filter="url(#filter4_d_24_1229)">
<path d="M456.404 402.174H380.712V411.799H456.404V402.174Z" fill="#263238"/>
<path d="M456.517 411.924H380.589V402.049H456.517V411.924ZM380.848 411.695H456.269V402.309H380.848V411.695Z" fill="#263238"/>
<path d="M387.731 408.598L398.625 458.352H438.932L449.465 411.799L387.731 408.598Z" fill="#263238"/>
<path d="M387.731 453.649L393.544 461.042H442.537L449.465 453.649H387.731Z" fill="#455A64"/>
<path d="M415.714 410.047C415.567 410.047 415.376 387 415.286 358.572C415.196 330.144 415.286 307.087 415.398 307.087C415.511 307.087 415.736 330.134 415.827 358.572C415.917 387.011 415.86 410.047 415.714 410.047Z" fill="#263238"/>
<path d="M432.578 352.367C432.528 352.55 432.46 352.728 432.375 352.899L431.699 354.391L431.204 355.433L430.697 356.747C430.517 357.217 430.325 357.717 430.111 358.249C429.897 358.781 429.751 359.355 429.559 359.959C428.655 362.772 427.947 365.635 427.441 368.532C426.864 372.088 426.488 375.67 426.315 379.262C426.035 385.799 426.234 392.346 426.912 398.858C427.148 401.36 427.396 403.384 427.576 404.781C427.655 405.438 427.723 405.97 427.768 406.387C427.783 406.574 427.783 406.763 427.768 406.95C427.694 406.776 427.649 406.594 427.633 406.408C427.554 405.98 427.452 405.459 427.34 404.802C427.092 403.415 426.788 401.402 426.495 398.899C425.703 392.374 425.451 385.802 425.74 379.242C425.931 375.629 426.337 372.029 426.957 368.459C427.496 365.547 428.248 362.672 429.21 359.855C429.424 359.25 429.593 358.677 429.818 358.145C430.043 357.613 430.246 357.102 430.438 356.643L430.99 355.35C431.17 354.954 431.361 354.599 431.53 354.307C431.835 353.713 432.094 353.264 432.296 352.847C432.499 352.43 432.556 352.357 432.578 352.367Z" fill="#263238"/>
<path d="M430.606 333.721C430.553 333.981 430.474 334.236 430.37 334.483C430.167 335.014 429.908 335.734 429.581 336.631L428.995 338.174C428.815 338.748 428.612 339.363 428.387 340.03C427.948 341.365 427.429 342.877 426.979 344.588C426.731 345.443 426.483 346.329 426.213 347.247C425.942 348.165 425.751 349.155 425.514 350.167C424.985 352.169 424.602 354.338 424.106 356.633C423.273 361.211 422.54 366.268 422.033 371.608C421.526 376.947 421.346 382.036 421.279 386.698C421.211 391.359 421.279 395.531 421.526 399.035C421.594 400.797 421.718 402.382 421.819 403.769C421.921 405.156 422 406.366 422.09 407.346C422.18 408.326 422.236 409.036 422.281 409.599C422.308 409.862 422.308 410.128 422.281 410.391C422.281 410.391 422.225 410.12 422.146 409.609C422.067 409.098 421.977 408.306 421.864 407.357C421.752 406.408 421.605 405.188 421.493 403.79C421.38 402.393 421.222 400.818 421.132 399.056C420.873 395.541 420.772 391.349 420.76 386.698C420.749 382.047 420.997 376.926 421.47 371.566C421.943 366.206 422.732 361.138 423.599 356.549C424.106 354.265 424.5 352.086 425.052 350.073C425.312 349.03 425.559 348.092 425.796 347.164C426.033 346.235 426.337 345.349 426.585 344.494C427.069 342.794 427.61 341.282 428.083 339.947C428.308 339.29 428.533 338.664 428.736 338.091L429.356 336.558C429.728 335.682 430.02 334.973 430.246 334.472C430.341 334.212 430.462 333.961 430.606 333.721Z" fill="#263238"/>
<path d="M410.926 414.125C410.914 414.035 410.914 413.944 410.926 413.854C410.926 413.645 410.926 413.385 410.858 413.061C410.802 412.331 410.734 411.309 410.633 410.016C410.453 407.326 410.194 403.498 409.878 398.785C409.225 389.305 408.267 376.207 406.499 361.816C405.62 354.61 404.606 347.769 403.536 341.574C402.972 338.446 402.409 335.536 401.88 332.793C401.35 330.051 400.753 327.506 400.246 325.181C399.739 322.855 399.199 320.769 398.748 318.923C398.297 317.078 397.892 315.503 397.531 314.22C397.171 312.938 396.934 311.968 396.743 311.248C396.664 310.935 396.608 310.675 396.551 310.476C396.541 310.386 396.541 310.295 396.551 310.205C396.599 310.287 396.633 310.375 396.653 310.466L396.9 311.227L397.779 314.168C398.162 315.451 398.624 317.025 399.086 318.861C399.548 320.696 400.145 322.782 400.663 325.118C401.181 327.454 401.79 329.978 402.364 332.731C402.939 335.484 403.491 338.414 404.076 341.512C405.203 347.716 406.206 354.558 407.084 361.764C408.808 376.186 409.698 389.284 410.261 398.774C410.531 403.519 410.734 407.357 410.847 410.016C410.847 411.309 410.937 412.331 410.971 413.072C410.971 413.395 410.971 413.656 410.971 413.864C410.968 413.953 410.953 414.04 410.926 414.125Z" fill="#263238"/>
<path d="M415.094 318.172C414.767 314.908 411.207 312.437 407.659 312.406C405.884 312.479 404.151 312.924 402.59 313.708C401.029 314.492 399.68 315.595 398.647 316.931C396.61 319.626 395.139 322.65 394.309 325.848C391.921 333.544 390.626 341.626 391.639 349.573C392.653 357.519 396.146 365.351 402.308 370.961C403.31 371.879 404.561 372.786 405.98 372.515C406.72 372.312 407.389 371.93 407.918 371.41C413.949 366.298 418.731 360.052 421.94 353.089C425.15 346.127 426.714 338.609 426.528 331.041C426.438 328.017 426.01 324.868 424.196 322.354C422.383 319.841 418.181 317.14 415.094 318.183" fill="#4A4A4A"/>
<path d="M388.643 292.018L383.653 300.361C383.54 300.548 383.382 300.767 383.146 300.788C382.909 300.809 382.684 300.58 382.538 300.382L369.357 281.61L372.388 280.025L388.643 292.018Z" fill="#4A4A4A"/>
<g opacity="0.2">
<path d="M388.643 292.018L383.653 300.361C383.54 300.548 383.382 300.767 383.146 300.788C382.909 300.809 382.684 300.58 382.538 300.382L369.357 281.61L372.388 280.025L388.643 292.018Z" fill="black"/>
</g>
<path d="M415.398 307.087L370.405 282.507C370.151 282.412 369.921 282.27 369.727 282.091C369.534 281.912 369.381 281.699 369.278 281.464C369.098 280.849 369.594 280.255 370.078 279.796C373.17 276.824 376.919 274.504 381.067 272.994C385.216 271.484 389.667 270.82 394.118 271.046C398.567 271.343 402.871 272.637 406.659 274.817C410.447 276.997 413.605 279.998 415.86 283.56C420.209 290.746 420.366 300.246 415.365 307.066" fill="#4A4A4A"/>
<path d="M376.893 274.665C377.083 274.614 377.281 274.589 377.479 274.592C377.862 274.592 378.436 274.508 379.18 274.519C381.271 274.492 383.361 274.646 385.421 274.978C388.487 275.458 391.474 276.299 394.309 277.481C399.223 279.523 403.588 282.545 407.094 286.331C410.599 290.117 413.158 294.573 414.587 299.38C415.149 301.246 415.526 303.156 415.713 305.085C415.792 305.773 415.713 305.94 415.781 306.305C415.736 306.627 415.617 306.936 415.432 307.212C415.568 306.524 415.591 305.821 415.499 305.126C414.601 297.829 411.189 290.994 405.768 285.632C400.346 280.269 393.204 276.666 385.398 275.353C383.361 274.999 381.297 274.794 379.225 274.738C377.659 274.686 376.893 274.707 376.893 274.665Z" fill="#263238"/>
<path d="M409.315 290.12C408.606 290.518 407.85 290.84 407.062 291.079C405.62 291.601 403.626 292.268 401.429 292.925C399.232 293.582 397.126 294.114 395.639 294.448C394.841 294.68 394.017 294.827 393.183 294.886C393.93 294.547 394.716 294.289 395.526 294.114L401.26 292.456L406.949 290.725C407.714 290.451 408.507 290.249 409.315 290.12Z" fill="#263238"/>
<path d="M402.229 272.506C402.629 274.024 402.807 275.585 402.759 277.147C402.887 278.709 402.793 280.28 402.477 281.819C402.259 280.274 402.172 278.715 402.218 277.157C402.082 275.609 402.086 274.054 402.229 272.506Z" fill="#263238"/>
<path d="M370.01 282.038C371.066 281.606 372.159 281.257 373.277 280.995C375.327 280.411 378.166 279.671 381.343 278.961C384.52 278.252 387.415 277.72 389.522 277.376C390.65 277.136 391.801 276.993 392.958 276.949C391.851 277.276 390.722 277.534 389.578 277.72C387.494 278.148 384.61 278.763 381.445 279.452C378.279 280.14 375.406 280.818 373.379 281.339C372.276 281.648 371.15 281.882 370.01 282.038Z" fill="#263238"/>
<path d="M396.416 311.081C392.552 308.37 388.463 307.827 383.608 308.015C378.748 308.313 373.992 309.448 369.582 311.363C361.989 314.439 354.859 318.975 350.33 325.389C345.801 331.802 344.213 340.302 347.604 347.289C347.865 348.022 348.416 348.637 349.147 349.009C349.987 349.237 350.888 349.174 351.682 348.832C360.311 346.225 369.008 343.618 376.939 339.519C384.869 335.421 392.102 329.758 396.36 322.344C397.45 320.59 398.144 318.649 398.399 316.639C398.52 315.634 398.405 314.616 398.063 313.655C397.721 312.694 397.159 311.813 396.416 311.071" fill="#4A4A4A"/>
<path d="M396.495 310.236C396.302 310.344 396.093 310.425 395.875 310.476L394.073 311.05L392.755 311.456C392.281 311.613 391.775 311.811 391.234 312.009C390.107 312.416 388.868 312.823 387.539 313.427L385.421 314.314C384.689 314.627 383.956 315.013 383.168 315.357C381.602 316.076 380.014 316.983 378.335 317.901C371.099 322.077 364.668 327.343 359.308 333.481C358.102 334.91 356.931 336.245 355.928 337.59C355.444 338.258 354.937 338.883 354.509 339.519L353.281 341.344C352.47 342.492 351.873 343.607 351.287 344.556C351.005 345.036 350.735 345.474 350.51 345.891C350.284 346.308 350.093 346.694 349.901 347.038C349.563 347.695 349.282 348.217 349.056 348.623C348.971 348.816 348.861 348.998 348.73 349.166C348.785 348.968 348.861 348.776 348.955 348.592L349.721 346.955L350.273 345.787C350.487 345.359 350.757 344.911 351.028 344.431C351.58 343.461 352.154 342.346 352.954 341.167L354.16 339.311C354.576 338.664 355.083 338.028 355.568 337.361C356.514 335.995 357.686 334.639 358.88 333.189C364.24 326.991 370.719 321.698 378.031 317.547C379.732 316.639 381.332 315.732 382.909 315.033C383.697 314.668 384.441 314.293 385.162 313.991L387.302 313.125C388.654 312.541 389.938 312.155 391.042 311.769C391.606 311.582 392.112 311.394 392.597 311.248L393.926 310.883L395.762 310.403C396 310.324 396.245 310.268 396.495 310.236Z" fill="#263238"/>
<path d="M366.259 325.4C363.179 326.488 360.039 327.425 356.852 328.205C353.709 329.143 350.513 329.919 347.277 330.53C350.361 329.445 353.505 328.508 356.695 327.725C359.834 326.788 363.027 326.011 366.259 325.4Z" fill="#263238"/>
<path d="M365.876 344.63C365.709 343.731 365.641 342.819 365.674 341.908C365.617 340.229 365.606 337.914 365.674 335.348C365.741 332.783 365.899 330.468 366.057 328.799C366.078 327.889 366.203 326.984 366.428 326.098C366.507 327.004 366.507 327.914 366.428 328.82C366.372 330.655 366.293 332.897 366.214 335.369C366.135 337.841 366.09 340.072 366.034 341.908C366.069 342.817 366.016 343.728 365.876 344.63Z" fill="#263238"/>
<path d="M383.675 336.235C383.517 336.235 383.044 331.531 382.616 325.702C382.188 319.872 381.951 315.148 382.098 315.138C382.244 315.127 382.717 319.841 383.157 325.671C383.596 331.5 383.821 336.224 383.675 336.235Z" fill="#263238"/>
<path d="M361.517 314.71C362.518 314.597 363.529 314.57 364.536 314.627C366.394 314.627 368.963 314.689 371.802 314.773C374.641 314.856 377.209 314.971 379.057 315.075C380.066 315.08 381.072 315.168 382.065 315.336C381.067 315.456 380.06 315.484 379.057 315.419C377.198 315.419 374.618 315.357 371.779 315.273C368.94 315.19 366.372 315.086 364.524 314.981C363.515 314.977 362.508 314.886 361.517 314.71Z" fill="#263238"/>
<path d="M404.235 372.067C404.191 371.885 404.168 371.7 404.167 371.514C404.167 371.086 404.167 370.565 404.088 369.908C404.021 368.521 404.009 366.498 404.088 364.005C404.167 361.513 404.325 358.551 404.64 355.266C404.956 351.981 405.508 348.394 406.229 344.65C406.95 340.906 407.873 337.35 408.786 334.222C409.698 331.093 410.69 328.205 411.602 325.879C412.515 323.553 413.269 321.635 413.855 320.352L414.542 318.871C414.611 318.695 414.702 318.527 414.813 318.371C414.779 318.557 414.722 318.739 414.644 318.913C414.486 319.299 414.295 319.799 414.058 320.415C413.517 321.718 412.796 323.626 411.951 325.983C411.107 328.34 410.171 331.198 409.259 334.326C408.346 337.455 407.49 341.032 406.747 344.755C406.003 348.478 405.508 352.054 405.125 355.339C404.742 358.624 404.561 361.597 404.46 364.037C404.359 366.477 404.314 368.531 404.314 369.929C404.314 370.575 404.314 371.107 404.314 371.524C404.313 371.708 404.287 371.89 404.235 372.067Z" fill="#263238"/>
<path d="M406.612 344.786C406.08 345.45 405.476 346.062 404.809 346.611C403.683 347.654 401.993 349.124 400.111 350.657C398.23 352.19 396.461 353.514 395.155 354.443C394.485 354.985 393.752 355.457 392.969 355.85C393.56 355.235 394.213 354.673 394.918 354.171L399.751 350.282L404.55 346.35C405.181 345.768 405.871 345.244 406.612 344.786Z" fill="#263238"/>
<path d="M420.851 355.381C420.143 354.613 419.502 353.793 418.935 352.931L414.497 346.924C412.773 344.661 411.207 342.627 409.991 340.98C409.317 340.185 408.707 339.345 408.166 338.466C408.947 339.172 409.659 339.939 410.295 340.761C411.545 342.231 413.213 344.296 414.97 346.642C416.727 348.989 418.237 351.147 419.296 352.743C419.897 353.578 420.417 354.461 420.851 355.381Z" fill="#263238"/>
<path d="M413.393 322.01C413.472 322.125 408.741 325.076 402.826 328.601C396.912 332.126 392.045 334.858 391.967 334.764C391.888 334.67 396.619 331.698 402.533 328.173C408.448 324.649 413.314 321.885 413.393 322.01Z" fill="#263238"/>
<path d="M426.731 335.327C424.223 333.414 421.835 331.371 419.578 329.206C417.194 327.167 414.937 325.005 412.819 322.73C415.324 324.646 417.712 326.69 419.972 328.851C422.349 330.896 424.606 333.058 426.731 335.327Z" fill="#263238"/>
<path d="M430.088 335.067L434.144 334.754C437.03 334.535 439.832 333.742 442.356 332.428C443.585 331.759 444.861 331.166 446.175 330.655C451.2 328.789 456.798 329.122 462.206 328.872C471.053 328.449 479.72 326.396 487.699 322.834C488.171 322.637 488.564 322.309 488.826 321.895C489.659 320.488 488.105 319.236 486.775 318.475C479.937 314.575 472.964 310.622 465.202 308.683C457.441 306.743 448.642 307.077 442.018 311.29C434.245 316.243 431.418 326.411 430.1 335.067" fill="#4A4A4A"/>
<path d="M488.905 321.437C488.666 321.359 488.436 321.262 488.217 321.145L486.291 320.206C484.624 319.393 482.213 318.193 479.183 316.848C475.645 315.242 471.962 313.926 468.176 312.916C463.54 311.697 458.689 311.342 453.903 311.874C449.114 312.366 444.589 314.162 440.903 317.036C438.03 319.52 435.731 322.518 434.144 325.848C433.037 328.085 432.052 330.371 431.192 332.699C430.899 333.492 430.652 334.118 430.471 334.597C430.396 334.819 430.302 335.036 430.19 335.244C430.224 335.013 430.284 334.785 430.37 334.566C430.528 334.076 430.742 333.44 431.001 332.637C431.781 330.272 432.714 327.952 433.795 325.691C435.352 322.292 437.654 319.227 440.554 316.692C444.302 313.734 448.919 311.882 453.813 311.373C458.667 310.84 463.588 311.223 468.278 312.499C472.088 313.53 475.788 314.885 479.329 316.546C482.348 317.943 484.725 319.194 486.37 320.06L488.251 321.103C488.478 321.199 488.696 321.31 488.905 321.437Z" fill="#263238"/>
<path d="M479.149 326.286C479.07 326.401 473.752 323.22 467.286 319.184C460.82 315.148 455.638 311.78 455.717 311.665C455.796 311.55 461.113 314.731 467.59 318.767C474.068 322.803 479.227 326.182 479.149 326.286Z" fill="#263238"/>
<path d="M473.482 311.404C472.238 311.803 470.934 312.021 469.618 312.051C468.308 312.22 466.979 312.203 465.675 311.999C466.963 311.788 468.266 311.666 469.573 311.634C470.868 311.47 472.175 311.393 473.482 311.404Z" fill="#263238"/>
<path d="M450.231 308.599C449.795 309.519 449.205 310.371 448.485 311.123C447.864 311.995 447.105 312.776 446.232 313.438C446.67 312.522 447.259 311.674 447.978 310.925C448.604 310.053 449.363 309.27 450.231 308.599Z" fill="#263238"/>
<path d="M454.984 329.185C454.088 328.838 453.231 328.408 452.427 327.902C450.895 327.037 448.822 325.817 446.603 324.284C444.384 322.751 442.435 321.385 441.038 320.363C440.229 319.845 439.475 319.259 438.785 318.611C439.649 319.021 440.464 319.514 441.218 320.081L446.851 323.887C449.104 325.368 451.087 326.672 452.562 327.61C453.42 328.065 454.231 328.593 454.984 329.185Z" fill="#263238"/>
<path d="M436.07 351.043C432.195 350.094 427.576 353.577 426.776 357.217C425.977 360.856 427.452 364.569 429.176 367.916C432.88 375.428 438.377 382.063 445.251 387.324C452.168 392.585 460.803 395.525 469.754 395.667C468.109 388.627 470.182 381.265 469.269 374.111C468.466 367.807 465.376 361.943 460.503 357.477C455.63 353.012 449.264 350.21 442.446 349.531C439.968 349.281 437.107 348.926 436.127 351.043" fill="#4A4A4A"/>
<path d="M469.697 395.666C469.5 395.615 469.314 395.534 469.145 395.426C468.634 395.166 468.148 394.866 467.692 394.53C466.066 393.222 464.76 391.608 463.861 389.795C463.253 388.679 462.555 387.48 461.879 386.145L459.795 381.88C459.05 380.311 458.195 378.789 457.237 377.323C456.191 375.757 455.012 374.272 453.711 372.88C451.064 370.002 448.214 367.499 445.747 365.121C443.517 363.038 441.486 360.78 439.675 358.374C438.464 356.753 437.469 355.002 436.712 353.16C436.508 352.655 436.335 352.14 436.194 351.617C436.125 351.442 436.083 351.259 436.07 351.074C436.07 351.074 436.34 351.804 436.903 353.087C437.729 354.892 438.764 356.609 439.99 358.207C441.832 360.565 443.878 362.779 446.107 364.829C448.586 367.186 451.447 369.679 454.128 372.588C455.437 374.004 456.627 375.51 457.688 377.093C458.652 378.583 459.51 380.13 460.256 381.723C460.966 383.225 461.653 384.654 462.284 385.999C462.915 387.344 463.614 388.544 464.199 389.66C465.042 391.439 466.26 393.045 467.782 394.384C468.908 395.28 469.719 395.625 469.697 395.666Z" fill="#263238"/>
<path d="M449.656 389.795C449.681 388.979 449.802 388.168 450.017 387.376C450.321 385.905 450.817 383.872 451.481 381.671C452.146 379.471 452.878 377.5 453.453 376.082C453.714 375.303 454.069 374.555 454.512 373.85C454.358 374.65 454.124 375.436 453.813 376.196C453.329 377.625 452.687 379.607 452.011 381.807C451.335 384.007 450.783 385.978 450.389 387.459C450.222 388.257 449.977 389.039 449.656 389.795Z" fill="#263238"/>
<path d="M468.908 372.526C467.983 372.409 467.071 372.217 466.182 371.952C464.515 371.545 462.206 370.993 459.648 370.461C457.091 369.929 454.737 369.512 453.047 369.209C452.119 369.096 451.204 368.911 450.309 368.657C451.246 368.629 452.183 368.699 453.103 368.865C454.827 369.074 457.181 369.439 459.761 369.971C462.341 370.503 464.639 371.118 466.295 371.608C467.199 371.825 468.076 372.133 468.908 372.526Z" fill="#263238"/>
<path d="M435.282 377.552C435.326 376.611 435.465 375.675 435.699 374.757C436.048 373.047 436.589 370.69 437.31 368.125C438.03 365.559 438.808 363.255 439.416 361.607C439.696 360.698 440.073 359.818 440.543 358.979C440.376 359.907 440.127 360.821 439.799 361.711C439.281 363.38 438.571 365.685 437.85 368.25C437.129 370.815 436.532 373.141 436.093 374.83C435.908 375.758 435.636 376.668 435.282 377.552Z" fill="#263238"/>
<path d="M460.066 357.467C460.066 357.603 455.221 357.238 449.273 356.654C443.325 356.07 438.492 355.486 438.492 355.381C438.492 355.277 443.337 355.611 449.296 356.195C455.255 356.779 460.088 357.331 460.066 357.467Z" fill="#263238"/>
<path d="M456.516 411.758C456.516 411.893 439.517 412.008 418.552 412.008C397.588 412.008 380.577 411.893 380.577 411.758C380.577 411.622 397.576 411.507 418.552 411.507C439.528 411.507 456.516 411.622 456.516 411.758Z" fill="#455A64"/>
<path d="M444.7 432.01C444.7 432.145 433.243 432.26 419.116 432.26C404.989 432.26 393.532 432.145 393.532 432.01C393.532 431.874 404.989 431.759 419.116 431.759C433.243 431.759 444.7 431.874 444.7 432.01Z" fill="#455A64"/>
<path d="M444.249 434.909C444.249 435.044 432.983 435.159 419.116 435.159C405.248 435.159 393.983 435.044 393.983 434.909C393.983 434.773 405.248 434.659 419.116 434.659C432.983 434.659 444.249 434.773 444.249 434.909Z" fill="#455A64"/>
<path d="M445.15 429.621C445.15 429.767 433.299 429.872 418.688 429.872C404.077 429.872 392.226 429.767 392.226 429.621C392.226 429.475 404.066 429.371 418.688 429.371C433.31 429.371 445.15 429.486 445.15 429.621Z" fill="#455A64"/>
</g>
<path d="M363.555 113.941C360.097 98.4552 343.052 48.1274 269.546 50.9952C233.035 52.4135 212.87 68.4108 202.371 81.5819C195.538 90.0873 190.7 99.8197 188.165 110.156L188.086 110.583H147.362V110.062C147.362 109.906 147.362 94.6279 149.142 86.963L150.269 87.1716C148.725 93.9397 148.534 106.798 148.511 109.541H187.174C189.8 99.2296 194.659 89.5193 201.458 80.9979C212.059 67.6286 232.517 51.3915 269.512 49.9524C299.647 48.7844 323.766 56.3972 341.16 72.5926C356.875 87.1924 362.631 104.65 364.659 113.733L363.555 113.941Z" fill="#4A4A4A"/>
<path d="M295.975 355.569H235.018V194.856L235.683 194.97C293.26 204.356 318.246 180.746 328.058 165.833C339.594 148.22 341.577 126.966 333.466 108.988C328.385 97.8918 312.557 72.1648 274.019 72.7697C255.16 73.0721 229.825 78.5783 216.16 103.096C211.153 112.317 208.326 122.421 207.869 132.733V133.255H131.4V132.744C131.332 126.779 131.4 106.547 131.4 106.349V105.765L140.829 106.683V119.698L196.029 119.625C198.41 108.938 203.001 98.7791 209.547 89.7055C219.494 76.0442 238.589 59.8384 272.892 59.8384H274.019C299.14 60.0887 319.868 68.2646 333.973 83.4901C349.17 99.8941 353.766 121.554 351.569 135.758C351.569 136.029 350.127 168.712 323.597 190.476C305.088 205.67 279.032 212.063 246.137 209.476V259.439H257.492V219.529L258.101 219.582C268.387 220.085 278.7 219.363 288.787 217.433C304.266 214.493 325.625 207.266 339.481 189.506C364.321 157.574 364.592 139.522 364.783 126.341C364.783 125.298 364.783 124.255 364.783 123.212L364.659 120.584H381.557V121.053C381.557 121.387 384.261 153.945 354.949 190.476C336.71 213.199 315.34 227.841 294.781 231.679L294.567 230.636C314.844 226.85 335.967 212.355 354.047 189.829C381.163 156.041 380.667 125.736 380.465 121.606H365.82L365.887 123.181C365.887 124.224 365.887 125.267 365.887 126.309C365.684 139.627 365.414 157.876 340.383 190.069C326.346 208.11 304.694 215.442 289.001 218.424C279 220.322 268.783 221.057 258.585 220.614V260.482H245.022V208.34L245.63 208.392C278.48 211.072 304.469 204.784 322.854 189.704C349.023 168.242 350.454 135.997 350.465 135.674C352.628 121.648 348.099 100.322 333.139 84.168C319.249 69.1927 298.802 61.1419 274.019 60.8917C239.479 60.5475 220.407 76.6804 210.471 90.2686C203.874 99.3401 199.28 109.529 196.953 120.25L196.874 120.688L139.635 120.761V107.611L132.459 106.912C132.459 110.177 132.459 126.32 132.459 132.202H206.72C207.266 121.915 210.12 111.846 215.101 102.637C222.84 88.8399 239.288 72.2691 274.019 71.7268H275.393C313.571 71.7268 329.399 97.4434 334.457 108.602C342.748 126.893 340.698 148.501 328.971 166.396C320.612 179.15 301.314 198.172 260.624 198.182C252.415 198.136 244.225 197.438 236.145 196.097V354.526H295.975V355.569Z" fill="#4A4A4A"/>
<path d="M311.746 355.048H310.619V261.191L311.036 261.087C311.307 261.025 337.769 254.528 363.871 234.953C387.945 216.891 416.637 183.697 416.637 128.041C416.637 84.3142 397.486 49.2015 361.437 26.4674C331.596 7.69621 295.727 1.03242 274.086 1.03242C242.149 1.03242 165.139 8.56177 139.803 78.2552C137.771 84.6195 136.224 91.108 135.173 97.673L134.047 97.527C135.099 90.9203 136.65 84.39 138.688 77.9841C164.26 7.60235 241.867 0 274.018 0C295.817 0 331.945 6.71593 362.012 25.6123C398.466 48.5549 417.741 84.0117 417.741 128.051C417.741 184.125 388.801 217.59 364.524 235.777C348.873 247.524 330.956 256.413 311.723 261.974L311.746 355.048Z" fill="#4A4A4A"/>
<path d="M303.365 294.698H302.239L302.318 252.744L302.791 252.671C302.915 252.671 315.566 250.773 331.968 242.577C347.108 235.006 368.625 220.364 385.196 193.563C408.854 155.301 404.539 125.851 404.494 125.559C401.7 87.7869 385.647 58.389 356.797 38.1265C326.662 16.9567 291.931 12.4621 273.918 11.6591C259.836 11.0334 235.323 13.2233 212.612 21.4723C181.824 32.6516 161.388 51.5897 151.88 77.786L150.754 77.4523C160.374 50.9744 181.035 31.8277 212.139 20.5337C235.019 12.1909 259.723 10.0218 273.918 10.6475C292.055 11.4505 327.045 15.9973 357.427 37.3339C386.548 57.7842 402.737 87.4427 405.553 125.475C405.553 125.736 409.958 155.52 386.109 194.105C369.402 221.167 347.683 235.934 332.407 243.567C317.638 250.951 305.855 253.255 303.388 253.683L303.365 294.698Z" fill="#4A4A4A"/>
<path d="M303.274 346.089H258.067V345.046H302.148L302.204 312.624H303.331L303.274 346.089Z" fill="#4A4A4A"/>
<path d="M258.067 346.09H245.957V272.381H258.63V336.819H257.504V273.424H247.083V345.047H258.067V346.09Z" fill="#4A4A4A"/>
<path d="M179.852 98.1317H159.653V97.5894C160.306 77.9526 169.048 65.0839 176.269 57.7527C180.535 53.3274 185.588 49.6099 191.207 46.7611L180.516 38.1889L181.249 37.4067L193.291 47.0114L192.491 47.3451C192.199 47.4806 162.334 60.5684 160.847 97.0889H179.39C180.28 93.4389 187.4 67.0862 206.742 60.1512L200.434 53.9984C198.079 54.6659 182.308 60.0574 173.554 86.9628L172.428 86.6604C182.116 57.127 199.746 53.1016 200.49 52.9556L200.805 52.893L208.77 60.5997L207.948 60.8708C187.276 67.5554 180.516 97.4121 180.404 97.7146L180.314 98.1317H179.852Z" fill="#4A4A4A"/>
<path d="M213.805 54.1759L188.672 32.5473L189.438 31.7755L213.794 52.7472C216.969 50.2736 220.461 48.172 224.192 46.4901C234.582 41.8343 245.865 39.1265 257.391 38.5228C287.807 36.5414 309.448 41.8599 319.057 47.1263L327.405 34.1845C320.961 31.567 261.424 8.66607 212.791 34.7372L212.228 33.83C263.969 6.10067 327.81 33.1938 328.452 33.4754L329.015 33.7152L319.44 48.6175L318.956 48.336C309.752 43.0592 288.134 37.6155 257.469 39.6178C228.27 41.4845 214.312 53.7066 214.188 53.8318L213.805 54.1759Z" fill="#4A4A4A"/>
<path d="M292.178 332.24H291.052L292.764 243.379H293.316C325.625 243.16 370.765 200.435 383.686 166.918C401.711 120.146 387.066 87.3904 371.588 68.1499C361.405 55.5946 348.51 45.139 333.725 37.4485L325.524 51.2245C331.055 53.3936 372.939 71.2367 373.289 113.107L391.065 113.232V114.275L372.173 114.139V113.618C372.173 69.37 325.005 52.1422 324.532 51.9649L323.924 51.7563L333.274 36.1136L333.725 36.2701C348.87 44.0097 362.067 54.6377 372.444 67.4512C388.091 86.9003 402.928 120 384.723 167.231C377.445 186.106 362.361 205.816 343.323 221.156C325.704 235.412 307.274 244.047 293.857 244.37L292.178 332.24Z" fill="#4A4A4A"/>
<path d="M282.727 332.751H267.349L267.361 332.22L269.152 240.449L269.107 234.338H282.986V321.176H281.859V235.381H270.233L270.278 240.46L268.498 331.709H282.727V332.751Z" fill="#4A4A4A"/>
<path d="M380.724 220.854C379.767 219.811 373.571 213.982 372.027 212.511L371.87 212.355L371.701 212.209C371.616 212.152 371.555 212.071 371.529 211.977C371.502 211.884 371.511 211.785 371.554 211.698L371.982 211.333C372.106 211.333 372.185 211.333 372.455 211.51L372.771 211.812C373.357 212.313 374.427 213.325 376.567 215.337C379.406 218.007 381.073 219.634 381.569 220.187L380.724 220.854Z" fill="#4A4A4A"/>
<path d="M344.971 17.6393L338.044 25.7705L338.928 26.4163L345.855 18.2851L344.971 17.6393Z" fill="#4A4A4A"/>
<path d="M341.318 128.562C340.416 128.562 339.549 128.562 338.794 128.562V127.52C340.585 127.582 342.895 127.52 345.137 127.52C347.378 127.52 349.722 127.467 351.535 127.52V128.562C349.744 128.51 347.423 128.562 345.182 128.562H341.318Z" fill="#4A4A4A"/>
<path d="M166.874 120.334H165.748V132.264H166.874V120.334Z" fill="#4A4A4A"/>
<path d="M271.191 61.1628H270.064V71.4244H271.191V61.1628Z" fill="#4A4A4A"/>
<path d="M372.314 189.135L371.862 190.09L384.772 195.321L385.224 194.366L372.314 189.135Z" fill="#4A4A4A"/>
<path d="M318.996 207.317L318.101 207.95L326.322 217.91L327.217 217.277L318.996 207.317Z" fill="#4A4A4A"/>
<path d="M411.625 88.7264L398.405 92.1272L398.706 93.132L411.927 89.7311L411.625 88.7264Z" fill="#4A4A4A"/>
<path d="M312.659 436.901H234.815V382.078H235.942V435.858H311.532V370.565H235.379V369.522H312.659V436.901Z" fill="#4A4A4A"/>
<path d="M303.331 425.544H245.957V393.247H292.179V412.519H258.067V403.227H280.418V404.27H259.194V411.476H291.052V394.29H247.084V424.501H302.205V382.996H235.379V381.953H303.331V425.544Z" fill="#4A4A4A"/>
<path d="M260.41 425.023H259.284V436.369H260.41V425.023Z" fill="#4A4A4A"/>
<path d="M312.095 400.036H302.767V401.079H312.095V400.036Z" fill="#4A4A4A"/>
<path d="M268.487 393.768H267.36V403.216H268.487V393.768Z" fill="#4A4A4A"/>
<path d="M246.52 409.213H235.379V410.256H246.52V409.213Z" fill="#4A4A4A"/>
<g filter="url(#filter5_d_24_1229)">
<path d="M180.076 113.503L176.133 114.411L174.499 115.756L176.673 116.267L181.461 114.995L180.076 113.503Z" fill="#455A64"/>
<path d="M194.371 115.203L188.4 108.466H182.317L178.464 112.638C178.489 112.874 178.57 113.102 178.701 113.305C177.995 113.12 177.238 113.199 176.594 113.524L180.098 122.117L186.767 128.301L195.205 126.122L194.371 115.203ZM185.178 118.332L182.058 116.966C181.596 115.749 180.823 114.654 179.805 113.775C179.91 113.785 180.015 113.785 180.12 113.775C180.534 113.711 180.934 113.584 181.303 113.399C183.973 112.169 184.683 111.897 184.683 111.897L186.384 114.776L185.178 118.332Z" fill="#FFBE9D"/>
<path d="M189.73 113.138C188.918 112.561 188.224 111.855 187.68 111.053C186.993 110.338 186.458 109.51 186.103 108.612C186.226 108.519 187.15 109.467 188.153 110.698C188.845 111.409 189.381 112.238 189.73 113.138Z" fill="#EB996E"/>
<path d="M185.179 118.353C184.016 118.186 182.881 117.885 181.8 117.456H181.676V117.32C181.494 116.742 181.249 116.183 180.943 115.652C180.68 115.135 180.309 114.671 179.85 114.288C179.392 113.905 178.856 113.61 178.274 113.42C177.757 113.374 177.236 113.405 176.73 113.514C176.73 113.514 176.82 113.368 177.091 113.243C177.474 113.066 177.904 112.993 178.33 113.034C179.009 113.185 179.643 113.475 180.185 113.883C180.728 114.291 181.164 114.806 181.462 115.391C181.793 115.96 182.043 116.566 182.205 117.195L182.036 117.018C183.135 117.351 184.19 117.799 185.179 118.353Z" fill="#EB996E"/>
<path d="M181.033 115.099L194.934 111.689C195.064 111.657 195.186 111.6 195.292 111.524C195.398 111.447 195.486 111.351 195.551 111.242C195.616 111.133 195.657 111.013 195.671 110.889C195.685 110.765 195.672 110.64 195.633 110.521C195.56 110.307 195.405 110.126 195.198 110.011C194.99 109.895 194.744 109.854 194.506 109.895L179.704 113.608C180.231 114.035 180.68 114.539 181.033 115.099Z" fill="#455A64"/>
<path d="M74.6212 276.177L83.0477 271.953L83.3631 274.852L79.1273 289.598C77.7656 287.519 76.6693 285.3 75.8604 282.987C75.8604 282.987 74.5085 277.501 74.5085 277.105C74.5134 276.792 74.5588 276.48 74.6437 276.177" fill="#FFBE9D"/>
<path d="M143.61 429.632L145.041 461.022L163.347 460.646L161.984 429.194L143.61 429.632Z" fill="#455A64"/>
<path d="M154.03 459.666C154.188 459.666 153.906 452.783 153.399 444.315C152.893 435.847 152.363 428.985 152.217 428.996C152.07 429.006 152.341 435.868 152.847 444.346C153.354 452.825 153.884 459.666 154.03 459.666Z" fill="#263238"/>
<path d="M144.951 458.863L163.257 458.425L163.347 460.646L145.041 461.022L144.951 458.863Z" fill="#263238"/>
<path d="M162.919 450.593C162.79 450.347 162.619 450.122 162.412 449.926C161.114 448.522 159.488 447.41 157.658 446.672C156.297 446.131 154.822 445.882 153.343 445.942C152.005 445.996 150.693 446.307 149.491 446.855C148.288 447.402 147.222 448.174 146.359 449.123C145.846 449.697 145.425 450.336 145.108 451.021C144.969 451.263 144.885 451.529 144.86 451.803C145.379 450.943 145.978 450.126 146.652 449.363C148.401 447.606 150.832 446.563 153.411 446.464C155.977 446.427 158.478 447.208 160.497 448.674C162.051 449.759 162.84 450.656 162.919 450.593Z" fill="#263238"/>
<g opacity="0.3">
<path d="M144.049 442.313L144.32 445.108H162.671L162.558 442.313H144.049Z" fill="black"/>
</g>
<path d="M81.887 431.832L81.2336 450.656C81.2336 450.656 60.7758 457.82 60.6406 461.366L100.61 460.896L101.545 431.509L81.887 431.832Z" fill="#455A64"/>
<path d="M93.3215 448.852C93.7124 448.954 94.0488 449.186 94.2669 449.503C94.485 449.821 94.5695 450.201 94.5044 450.572C94.4077 450.938 94.1634 451.255 93.8218 451.458C93.4803 451.662 93.0674 451.737 92.6681 451.667C92.2539 451.56 91.8977 451.313 91.6687 450.976C91.4397 450.639 91.3542 450.235 91.4289 449.842C91.5725 449.472 91.8642 449.167 92.2437 448.991C92.6232 448.814 93.0615 448.779 93.468 448.893" fill="#E0E0E0"/>
<path d="M100.61 460.896V458.519L61.7786 459.666C61.4289 459.876 61.1296 460.149 60.899 460.47C60.6684 460.792 60.5115 461.153 60.438 461.533L100.61 460.896Z" fill="#263238"/>
<path d="M80.8733 450.781C80.8733 450.969 81.8759 451.031 82.856 451.594C83.8361 452.158 84.3768 452.908 84.5571 452.835C84.7373 452.762 84.4106 451.709 83.2053 451.052C81.9999 450.395 80.8283 450.614 80.8733 450.781Z" fill="#263238"/>
<path d="M76.6829 452.491C76.6829 452.668 77.5052 452.96 78.1924 453.722C78.8796 454.483 79.0936 455.286 79.3189 455.275C79.5442 455.265 79.6231 454.233 78.7444 453.304C77.8657 452.376 76.6829 452.366 76.6829 452.491Z" fill="#263238"/>
<path d="M74.3956 457.236C74.5758 457.236 74.8237 456.35 74.2942 455.369C73.7647 454.389 72.8297 454.003 72.7509 454.149C72.672 454.295 73.2578 454.827 73.6859 455.651C74.114 456.475 74.2041 457.226 74.3956 457.236Z" fill="#263238"/>
<path d="M81.121 446.37C81.1999 446.537 82.1011 446.266 83.2164 446.307C84.3317 446.349 85.2104 446.662 85.3117 446.505C85.4131 446.349 84.557 445.713 83.2389 445.682C81.9209 445.65 81.0197 446.234 81.121 446.37Z" fill="#263238"/>
<path d="M80.2537 442.271C80.9182 442.426 81.6159 442.407 82.2702 442.219C82.9948 442.084 83.6986 441.867 84.3655 441.572C84.7548 441.397 85.1311 441.199 85.492 440.978C85.7182 440.858 85.9202 440.703 86.0891 440.519C86.2151 440.387 86.2901 440.22 86.3023 440.045C86.3146 439.869 86.2633 439.695 86.1567 439.549C86.053 439.428 85.9213 439.329 85.7713 439.261C85.6212 439.192 85.4566 439.155 85.2893 439.153C85.0296 439.16 84.772 439.198 84.5232 439.268C84.0966 439.374 83.6817 439.517 83.284 439.695C82.6064 439.988 81.9859 440.383 81.4478 440.863C80.5353 441.687 80.2311 442.375 80.3213 442.407C80.4114 442.438 80.8507 441.885 81.7857 441.207C82.3306 440.81 82.9289 440.481 83.5657 440.227C83.9281 440.076 84.3054 439.957 84.6922 439.873C85.1203 439.758 85.4808 439.747 85.5934 439.873C85.7061 439.998 85.5934 439.966 85.5934 440.092C85.4621 440.216 85.3145 440.324 85.1541 440.415C84.8139 440.632 84.4603 440.83 84.0951 441.009C83.4763 441.31 82.8274 441.555 82.1575 441.739C81.5105 441.876 80.8744 442.054 80.2537 442.271Z" fill="#263238"/>
<g opacity="0.3">
<path d="M101.196 442.542L101.061 446.88L81.3577 447.162L81.5379 443.23L101.196 442.542Z" fill="black"/>
</g>
<path d="M92.905 128.718L102.593 166.678L125.642 163.841L123.952 151.734C123.952 151.734 132.356 151.859 133.088 144.538C133.325 142.098 131.275 131.315 129.258 121.533C128.796 119.296 127.859 117.167 126.502 115.268C125.144 113.369 123.393 111.738 121.35 110.471C119.307 109.203 117.012 108.323 114.598 107.882C112.185 107.442 109.701 107.449 107.291 107.903C104.851 108.363 102.536 109.271 100.482 110.574C98.4292 111.878 96.6798 113.55 95.338 115.492C93.9962 117.433 93.0894 119.604 92.6715 121.876C92.2535 124.149 92.3329 126.475 92.905 128.718Z" fill="#FFBE9D"/>
<path d="M114.174 106.548C116.156 107.215 115.649 108.122 116.066 108.946C116.483 109.77 118.218 109.707 119.93 110.333C121.642 110.959 125.563 113.868 126.61 115.683C127.658 117.497 127.027 117.716 126.836 118.738C126.644 119.76 128.221 124.881 128.447 125.788C128.875 127.509 129.697 132.577 129.697 132.577L128.041 133.38C128.041 133.38 127.174 127.832 125.225 127.863C123.276 127.895 122.791 129.782 122.701 130.293C122.122 131.074 121.695 131.942 121.44 132.859C121.012 135.278 121.203 138.813 121.012 141.035C120.707 144.465 116.641 149.544 116.641 149.544L98.6161 151.088C98.6161 151.088 90.4488 133.985 89.9193 129.521C89.3898 125.058 91.2373 119.093 93.941 115.068C95.261 113.341 96.8739 111.823 98.7175 110.573C100.028 109.734 101.398 108.978 102.818 108.31C105.93 106.889 109.393 106.256 112.855 106.475L114.174 106.548Z" fill="#263238"/>
<path d="M128.154 138.865C128.154 138.865 128.154 139.137 127.76 139.481C127.248 139.952 126.556 140.218 125.833 140.221C125.297 140.209 124.769 140.091 124.285 139.875C123.802 139.659 123.373 139.35 123.028 138.97C122.224 138.04 121.73 136.912 121.609 135.726C121.264 133.623 121.621 131.473 122.634 129.563C122.957 128.982 123.444 128.492 124.042 128.145C124.249 128.005 124.496 127.925 124.752 127.916C124.003 128.37 123.396 128.999 122.995 129.741C122.146 131.606 121.869 133.652 122.195 135.653C122.298 136.737 122.732 137.771 123.445 138.636C123.732 138.978 124.092 139.261 124.503 139.468C124.914 139.674 125.367 139.799 125.833 139.835C126.473 139.859 127.101 139.679 127.613 139.324C127.974 139.064 128.109 138.845 128.154 138.865Z" fill="#EB996E"/>
<path d="M125.991 136.383C126.047 136.383 125.608 136.696 124.988 136.383C124.652 136.148 124.382 135.842 124.202 135.49C124.022 135.137 123.936 134.75 123.952 134.36C123.941 133.602 124.216 132.865 124.729 132.275C125.123 131.826 125.484 131.691 125.529 131.743C124.961 132.517 124.623 133.416 124.549 134.35C124.531 134.662 124.581 134.975 124.698 135.269C124.814 135.563 124.993 135.832 125.225 136.06C125.608 136.321 125.98 136.269 125.991 136.383Z" fill="#EB996E"/>
<path d="M86.2916 260.847L77.8201 293.478V445.932L103.212 446.63L105.465 355.986L118.229 299.891L129.978 357.54L141.773 444.315L164.383 443.71C164.383 443.71 160.541 406.981 161.217 396.72C161.893 386.458 157.263 354.119 157.263 354.119C157.263 354.119 157.984 300.131 156.779 293.634C155.416 286.334 154.267 262.641 154.267 261.713L86.2916 260.847Z" fill="#263238"/>
<path d="M118.195 300.215C116.842 300.562 115.469 300.841 114.083 301.049C111.548 301.529 108.056 302.269 104.26 303.291C100.463 304.313 97.0725 305.377 94.6504 306.274C92.2284 307.17 90.7301 307.681 90.6963 307.608C91.0022 307.4 91.3353 307.228 91.6876 307.097C92.3298 306.795 93.2986 306.388 94.4927 305.919C97.6242 304.706 100.829 303.661 104.091 302.79C107.354 301.923 110.668 301.227 114.016 300.705C115.3 300.507 116.347 300.381 117.068 300.308C117.437 300.224 117.816 300.193 118.195 300.215Z" fill="#455A64"/>
<path d="M143.576 297.337C143.289 297.511 142.979 297.648 142.652 297.743C142.055 297.973 141.154 298.265 140.038 298.598C134.21 300.271 128.108 300.977 122.014 300.684C120.887 300.632 119.907 300.549 119.254 300.465C118.911 300.451 118.573 300.388 118.251 300.277C119.512 300.217 120.776 300.217 122.036 300.277C125.049 300.3 128.059 300.139 131.049 299.798C134.051 299.44 137.024 298.897 139.948 298.171C141.141 297.835 142.352 297.556 143.576 297.337Z" fill="#455A64"/>
<path d="M141.717 322.271C141.604 322.375 136.253 317.599 129.753 311.602C123.253 305.606 118.082 300.652 118.206 300.548C118.33 300.444 123.67 305.22 130.17 311.216C136.67 317.213 141.841 322.166 141.717 322.271Z" fill="#455A64"/>
<path d="M84.7712 266.677L95.6197 266.322L96.949 260.983L86.2921 260.847L84.7712 266.677Z" fill="#455A64"/>
<path d="M100.396 261.024L99.3936 266.677H137.493L137.594 261.494L100.396 261.024Z" fill="#455A64"/>
<path d="M140.861 261.536V266.677H154.481L154.245 261.713L140.861 261.536Z" fill="#455A64"/>
<path d="M94.2451 379.179C94.0874 379.179 92.1272 373.6 89.8741 366.665C87.6211 359.73 85.8975 353.994 86.0552 353.953C86.2129 353.911 88.1731 359.532 90.4374 366.467C92.7017 373.402 94.4028 379.137 94.2451 379.179Z" fill="#455A64"/>
<path d="M147.001 374.017C145.006 371.687 143.163 369.249 141.481 366.717C139.637 364.273 137.955 361.727 136.445 359.094C138.449 361.42 140.296 363.858 141.976 366.394C143.814 368.84 145.492 371.385 147.001 374.017Z" fill="#455A64"/>
<path d="M89.2663 171.465C89.2663 171.465 74.5538 177.148 72.6837 183.166C70.6222 189.84 68.5043 204.523 68.5043 204.523V243.192C68.5043 243.192 65.3387 256.228 65.9358 261.713C66.5329 267.198 72.9428 276.928 72.9428 276.928L83.3182 272.267L86.5626 258.657L87.1709 217.142L86.0444 196.566L89.2663 171.465Z" fill="#4A4A4A"/>
<path d="M89.2663 171.465L99.0446 164.228L99.5177 158.064L124.696 154.112L127.568 159.326L138.834 162.152L146.404 160.067L148.251 164.061L157.669 190.789L150.55 230.01C150.55 230.01 154.774 250.867 154.233 261.692L86.281 260.826C84.5236 258.835 84.2532 255.279 84.6024 251.076L83.6899 198.37L89.2663 171.465Z" fill="#4A4A4A"/>
<path d="M145.468 168.816C145.286 168.892 145.092 168.941 144.894 168.962L143.204 169.296L137.008 170.432C131.77 171.402 124.616 172.8 116.64 174.52C108.665 176.241 101.579 177.972 96.4304 179.265L90.3922 180.798L88.725 181.194C88.5372 181.259 88.3393 181.294 88.1392 181.299C88.3151 181.212 88.5 181.142 88.6912 181.09L90.3246 180.59C91.7441 180.162 93.8169 179.547 96.3741 178.89C101.5 177.503 108.62 175.761 116.562 173.988C124.504 172.216 131.725 170.922 136.986 170.057C139.61 169.619 141.74 169.285 143.227 169.087L144.928 168.858C145.106 168.825 145.287 168.811 145.468 168.816Z" fill="#263238"/>
<path d="M101.151 229.02C101.609 228.573 102.103 228.159 102.626 227.779L106.716 224.514C110.152 221.751 114.827 217.851 119.772 213.335C124.718 208.82 129.01 204.544 132.04 201.405L135.622 197.672C136.039 197.191 136.495 196.742 136.986 196.326C136.628 196.844 136.233 197.339 135.803 197.807C135.014 198.735 133.843 200.049 132.356 201.655C129.393 204.867 125.146 209.195 120.189 213.721C115.232 218.247 110.49 222.116 106.975 224.806C105.229 226.162 103.787 227.226 102.762 227.935C102.257 228.336 101.718 228.699 101.151 229.02Z" fill="#263238"/>
<path d="M146.528 214.753C146.426 214.906 146.309 215.049 146.179 215.181L145.12 216.328C144.185 217.371 142.788 218.737 141.03 220.437C131.82 229.278 121.564 237.131 110.456 243.849C108.327 245.131 106.57 246.133 105.342 246.8C104.767 247.092 104.306 247.342 103.923 247.551C103.764 247.652 103.589 247.73 103.404 247.78C103.404 247.78 103.551 247.655 103.855 247.457L105.218 246.612C106.412 245.903 108.124 244.85 110.22 243.536C114.422 240.897 120.111 237.091 126.081 232.523C132.052 227.956 137.144 223.492 140.726 220.166C142.517 218.497 143.959 217.141 144.94 216.192L146.066 215.15C146.359 214.868 146.505 214.743 146.528 214.753Z" fill="#263238"/>
<path d="M133.099 256.206C134.826 253.925 136.391 251.542 137.785 249.073C138.995 246.525 140.023 243.905 140.861 241.231C140.863 242.061 140.734 242.887 140.478 243.682C139.975 245.625 139.25 247.512 138.315 249.313C137.388 251.113 136.255 252.816 134.935 254.392C134.422 255.076 133.803 255.687 133.099 256.206Z" fill="#263238"/>
<path d="M146.719 161.871L172.156 160.911L184.548 155.426L185.933 139.314L184.807 127.915L195.509 124.975C195.509 124.975 204.397 146.092 204.104 153.778C204.003 156.364 203.834 158.909 203.665 161.161C203.478 163.484 202.656 165.725 201.276 167.673C199.897 169.621 198.005 171.213 195.779 172.299L157.624 190.81L146.719 161.871Z" fill="#4A4A4A"/>
<path d="M85.8865 206.88C85.204 205.383 84.7088 203.819 84.4108 202.218C83.9149 200.656 83.6088 199.047 83.4983 197.421C84.1817 198.918 84.6805 200.482 84.9853 202.083C85.4769 203.646 85.7791 205.255 85.8865 206.88Z" fill="#263238"/>
<path d="M85.6723 199.142C85.7242 199.347 85.7506 199.557 85.7512 199.768C85.7512 200.247 85.8075 200.81 85.8526 201.582C85.9202 203.23 85.999 205.482 86.1117 208.246C86.2694 213.94 86.4947 221.678 86.7425 230.24C86.9853 234.284 86.8761 238.34 86.4158 242.368C86.1567 244.235 85.5822 245.955 85.2893 247.582C85.1572 248.362 85.0969 249.15 85.109 249.939C85.109 250.7 84.9964 251.441 84.9401 252.15C84.686 254.348 84.7504 256.568 85.1316 258.751C85.2595 259.334 85.504 259.889 85.8526 260.388C86.1229 260.701 86.3032 260.847 86.2919 260.868C86.2806 260.889 86.2919 260.868 86.1455 260.774C86.003 260.682 85.8742 260.574 85.7624 260.451C85.3551 259.965 85.0669 259.403 84.9175 258.803C84.4285 256.609 84.2956 254.359 84.5233 252.129C84.5233 251.42 84.6134 250.69 84.6472 249.918C84.6291 249.112 84.6818 248.307 84.8049 247.509C85.0978 245.841 85.6385 244.162 85.8751 242.295C86.3031 238.289 86.3973 234.259 86.1567 230.24C85.9765 221.678 85.8188 213.94 85.6948 208.246C85.6948 205.482 85.6948 203.219 85.6273 201.582C85.6273 200.842 85.6273 200.237 85.6273 199.768C85.621 199.558 85.6361 199.349 85.6723 199.142Z" fill="#263238"/>
<path d="M154.672 182.144C154.19 181.317 153.79 180.451 153.478 179.557C152.813 177.931 151.957 175.668 151.079 173.144C150.2 170.62 149.468 168.316 148.983 166.637C148.664 165.741 148.441 164.819 148.319 163.883C148.761 164.73 149.116 165.613 149.378 166.522C150.02 168.347 150.786 170.547 151.631 172.977C152.476 175.407 153.242 177.597 153.884 179.422C154.243 180.303 154.507 181.215 154.672 182.144Z" fill="#263238"/>
<path d="M78.2482 250.346C76.5759 249.727 75.0999 248.726 73.9575 247.437C72.8151 246.148 72.0434 244.612 71.7144 242.973C72.4773 244.434 73.3782 245.83 74.4068 247.144C75.5853 248.312 76.8706 249.383 78.2482 250.346Z" fill="#263238"/>
<path d="M86.2808 266.364C85.885 267.074 85.3458 267.708 84.6924 268.231C83.1803 269.576 81.3776 270.61 79.403 271.264C77.4283 271.918 75.3265 272.178 73.2355 272.027C72.3698 272.003 71.517 271.826 70.7234 271.505C70.7234 271.422 71.7035 271.609 73.2581 271.641C77.3414 271.732 81.3158 270.416 84.4108 267.949C85.5823 267.011 86.2019 266.301 86.2808 266.364Z" fill="#263238"/>
<path d="M197.74 131.065C197.74 131.221 194.946 131.607 191.645 132.639C188.344 133.672 185.855 134.913 185.765 134.725C189.29 132.453 193.447 131.168 197.74 131.023V131.065Z" fill="#263238"/>
<path d="M194.417 126.831C194.417 126.904 194.18 126.998 194.09 127.311C194.055 127.39 194.043 127.476 194.056 127.561C194.07 127.645 194.107 127.725 194.165 127.792C194.222 127.859 194.298 127.91 194.385 127.941C194.471 127.972 194.565 127.98 194.656 127.966C194.747 127.952 194.832 127.915 194.903 127.86C194.974 127.805 195.027 127.733 195.058 127.653C195.089 127.572 195.096 127.485 195.078 127.401C195.06 127.317 195.019 127.239 194.958 127.175C194.755 126.914 194.484 126.893 194.473 126.82C194.462 126.747 194.811 126.581 195.25 126.914C195.38 127.01 195.481 127.136 195.544 127.278C195.607 127.42 195.63 127.575 195.611 127.728C195.578 127.925 195.477 128.107 195.323 128.246C195.168 128.386 194.969 128.474 194.755 128.499C194.568 128.541 194.372 128.529 194.192 128.467C194.013 128.406 193.857 128.296 193.744 128.151C193.632 128.007 193.569 127.836 193.562 127.658C193.555 127.48 193.606 127.305 193.707 127.154C194.034 126.706 194.428 126.758 194.417 126.831Z" fill="#263238"/>
<path d="M127.636 159.326C127.276 159.466 126.897 159.557 126.509 159.597L123.456 160.129L113.385 161.829L103.314 163.591L100.261 164.102C99.8922 164.186 99.5139 164.228 99.1343 164.227C99.4907 164.067 99.87 163.955 100.261 163.894C100.971 163.716 101.996 163.487 103.28 163.216C105.837 162.663 109.386 161.975 113.317 161.297C117.249 160.619 120.831 160.087 123.456 159.753C124.752 159.587 125.811 159.461 126.543 159.388C126.903 159.329 127.27 159.308 127.636 159.326Z" fill="#263238"/>
<path d="M82.0112 196.139C81.8853 195.88 81.7982 195.606 81.7521 195.325C81.5938 194.578 81.4884 193.822 81.4366 193.062C81.3047 190.557 81.3989 188.045 81.7183 185.554C82.045 182.644 82.4731 180.016 82.7547 178.129C82.8459 177.096 83.0191 176.072 83.2729 175.063C83.3577 176.106 83.3199 177.155 83.1602 178.191C82.9913 180.1 82.6308 182.728 82.3041 185.627C81.9918 188.095 81.8413 190.578 81.8535 193.062C81.8873 194.95 82.1126 196.118 82.0112 196.139Z" fill="#263238"/>
<path d="M109.769 215.535C109.622 215.462 113.239 208.851 117.835 200.748C122.431 192.645 126.284 186.148 126.43 186.221C126.577 186.294 122.961 192.906 118.353 201.009C113.746 209.112 109.915 215.64 109.769 215.535Z" fill="#263238"/>
<path d="M162.738 178.233C162.491 179.023 162.167 179.791 161.769 180.527C161.139 181.924 160.305 183.874 159.516 186.075C158.728 188.275 158.187 190.246 157.815 191.779C157.668 192.588 157.446 193.384 157.151 194.157C157.116 193.329 157.203 192.502 157.41 191.696C157.779 189.736 158.295 187.802 158.953 185.908C159.612 184.009 160.421 182.158 161.375 180.37C161.727 179.606 162.185 178.887 162.738 178.233Z" fill="#263238"/>
<path d="M79.9719 190.83C79.5007 190.982 79.019 191.104 78.53 191.195C77.64 191.404 76.4121 191.696 75.0603 192.071C73.7084 192.447 72.5143 192.812 71.6807 193.114C71.2192 193.288 70.7449 193.431 70.2612 193.542C70.6929 193.307 71.1497 193.115 71.6243 192.968C72.4805 192.655 73.6859 192.249 75.0039 191.925C76.322 191.602 77.595 191.279 78.5074 191.112C78.9858 190.978 79.4758 190.884 79.9719 190.83Z" fill="#E0E0E0"/>
<path d="M121.744 192.937C121.744 192.989 113.757 195.179 103.866 197.817C93.9747 200.456 85.8862 202.552 85.8862 202.5C85.8862 202.448 93.8733 200.247 103.776 197.609C113.678 194.97 121.721 192.874 121.744 192.937Z" fill="#E0E0E0"/>
<path d="M154.357 184.135C154.357 184.187 147.215 186.638 138.371 189.6C129.528 192.561 122.329 194.918 122.307 194.866C122.284 194.814 129.438 192.363 138.292 189.391C147.147 186.419 154.334 184.073 154.357 184.135Z" fill="#E0E0E0"/>
<path d="M151.371 173.446L150.673 173.634L148.656 174.135L141.221 175.949C134.947 177.472 126.261 179.557 116.64 181.758C107.02 183.958 98.2892 185.856 91.9581 187.16L84.4441 188.661L82.3938 189.047C81.9207 189.141 81.6729 189.172 81.6729 189.172L82.3826 189.006L84.4216 188.578L91.913 187.003C98.2441 185.668 106.975 183.75 116.584 181.549L141.176 175.803L148.634 174.051L150.662 173.592L151.371 173.446Z" fill="#E0E0E0"/>
<path d="M137.29 161.412C137.29 161.474 126.6 163.988 113.385 167.022C100.171 170.057 89.4353 172.476 89.4241 172.414C89.4128 172.351 100.104 169.848 113.329 166.814C126.555 163.779 137.279 161.349 137.29 161.412Z" fill="#E0E0E0"/>
<path d="M161.42 161.829C161.43 161.895 161.43 161.961 161.42 162.027L161.499 162.59C161.555 163.07 161.623 163.779 161.679 164.676C161.826 166.958 161.826 169.246 161.679 171.527C161.515 173.81 161.199 176.08 160.733 178.327C160.553 179.192 160.395 179.881 160.26 180.413C160.26 180.6 160.159 180.788 160.113 180.965C160.068 181.143 160.046 181.153 160.046 181.143C160.046 181.132 160.046 181.08 160.046 180.955L160.147 180.392C160.267 179.787 160.403 179.109 160.553 178.358C160.868 176.627 161.229 174.187 161.42 171.569C161.575 169.295 161.605 167.015 161.51 164.739C161.51 163.967 161.432 163.289 161.398 162.653V162.09C161.393 162.002 161.4 161.915 161.42 161.829Z" fill="#E0E0E0"/>
<path d="M178.859 179.87C178.859 179.87 178.859 179.807 178.859 179.672L178.769 179.109C178.701 178.608 178.6 177.899 178.442 177.023C178.054 174.734 177.508 172.47 176.808 170.245C176.092 168.022 175.23 165.842 174.229 163.716C173.834 162.903 173.508 162.246 173.271 161.798L173.012 161.276C172.981 161.215 172.955 161.153 172.933 161.088C172.933 161.088 172.989 161.088 173.057 161.255C173.125 161.422 173.249 161.589 173.361 161.756C173.62 162.194 173.97 162.799 174.375 163.654C175.435 165.766 176.324 167.948 177.034 170.182C177.735 172.417 178.262 174.697 178.611 177.002C178.746 177.889 178.825 178.608 178.859 179.088C178.859 179.286 178.859 179.474 178.859 179.661C178.867 179.731 178.867 179.801 178.859 179.87Z" fill="#E0E0E0"/>
<path d="M193.313 171.84C193.201 171.619 193.103 171.393 193.02 171.162L192.276 169.295C191.623 167.721 190.665 165.583 189.426 163.278C188.187 160.974 186.914 158.982 185.945 157.563C185.528 156.948 185.134 156.385 184.819 155.884C184.669 155.684 184.533 155.475 184.413 155.259C184.588 155.44 184.75 155.632 184.897 155.832C185.202 156.208 185.618 156.771 186.125 157.48C187.427 159.316 188.612 161.221 189.674 163.184C190.734 165.151 191.667 167.174 192.468 169.243C192.772 170.036 192.997 170.682 193.144 171.131C193.223 171.362 193.28 171.599 193.313 171.84Z" fill="#E0E0E0"/>
<path d="M203.046 150.441C202.81 150.439 202.576 150.411 202.347 150.357L200.466 150.045C198.878 149.784 196.681 149.45 194.248 149.137C191.814 148.824 189.595 148.616 187.995 148.47L186.092 148.303C185.857 148.29 185.624 148.262 185.393 148.22C185.625 148.192 185.86 148.192 186.092 148.22C186.542 148.22 187.218 148.22 188.007 148.313C189.618 148.418 191.837 148.616 194.281 148.929C196.726 149.242 198.923 149.596 200.5 149.899C201.288 150.045 201.931 150.17 202.37 150.274C202.599 150.314 202.825 150.37 203.046 150.441Z" fill="#E0E0E0"/>
<path d="M200.342 136.216H199.779C199.418 136.216 198.9 136.216 198.258 136.216C196.582 136.223 194.909 136.355 193.256 136.613C191.609 136.872 189.986 137.248 188.401 137.739L186.97 138.198C186.798 138.273 186.616 138.329 186.429 138.365C186.587 138.265 186.757 138.185 186.936 138.125C187.263 137.979 187.747 137.802 188.356 137.593C189.938 137.054 191.571 136.652 193.234 136.394C194.898 136.142 196.583 136.03 198.269 136.06C198.781 136.064 199.293 136.092 199.801 136.143C199.984 136.145 200.166 136.169 200.342 136.216Z" fill="#E0E0E0"/>
<path d="M111.312 210.426C111.312 210.488 105.758 211.687 98.9198 213.116C92.0818 214.545 86.4153 215.64 86.4041 215.64C86.3928 215.64 91.9579 214.378 98.7959 212.949C105.634 211.521 111.3 210.426 111.312 210.426Z" fill="#E0E0E0"/>
<path d="M119.198 213.054C117.882 213.09 116.565 213.048 115.255 212.928C113.938 212.892 112.625 212.777 111.324 212.584C112.639 212.561 113.956 212.602 115.267 212.709C116.583 212.76 117.895 212.875 119.198 213.054Z" fill="#E0E0E0"/>
<path d="M155.506 200.216C155.506 200.216 149.074 201.864 141.109 203.772C133.144 205.68 126.667 207.182 126.656 207.12C126.644 207.057 133.077 205.472 141.053 203.563C149.028 201.655 155.483 200.153 155.506 200.216Z" fill="#E0E0E0"/>
<path d="M101.534 227.82C101.534 227.883 98.3123 228.467 94.3018 229.124C90.2914 229.781 87.0132 230.24 87.0132 230.24C87.0132 230.24 90.2463 229.604 94.2568 228.947C98.2672 228.29 101.523 227.768 101.534 227.82Z" fill="#E0E0E0"/>
<path d="M139.959 219.811C139.959 219.863 132.626 221 123.557 222.335C114.489 223.67 107.121 224.713 107.121 224.65C107.121 224.588 114.455 223.461 123.523 222.126C132.592 220.792 139.959 219.811 139.959 219.811Z" fill="#E0E0E0"/>
<path d="M152.61 220.854C152.446 220.901 152.275 220.926 152.103 220.927L150.74 221.042C149.614 221.135 148.003 221.271 146.234 221.48C144.466 221.688 142.855 221.907 141.728 222.074L140.376 222.283C140.212 222.306 140.045 222.306 139.881 222.283L140.365 222.157C140.68 222.084 141.131 221.991 141.706 221.886C142.832 221.678 144.421 221.427 146.212 221.219C148.003 221.01 149.591 220.896 150.718 220.843C151.304 220.843 151.766 220.843 152.092 220.843C152.265 220.828 152.439 220.832 152.61 220.854Z" fill="#E0E0E0"/>
<path d="M114.05 240.824C113.964 240.87 113.873 240.909 113.779 240.939L112.991 241.252C112.304 241.513 111.29 241.867 110.039 242.295C103.472 244.409 96.6305 245.706 89.6941 246.153C88.3648 246.237 87.2946 246.279 86.5399 246.289H85.4133H85.7062H86.5624C87.3059 246.289 88.3761 246.185 89.7054 246.091C93.1554 245.817 96.5856 245.361 99.9794 244.725C103.371 244.075 106.719 243.242 110.006 242.232C111.267 241.846 112.259 241.513 112.98 241.273L113.779 241.002L114.05 240.824Z" fill="#E0E0E0"/>
<path d="M152.566 234.912C152.434 234.968 152.299 235.017 152.161 235.058L150.978 235.433C149.941 235.767 148.443 236.215 146.584 236.747C142.855 237.79 137.673 239.156 131.939 240.408C126.205 241.659 120.843 242.545 117.002 243.109C115.075 243.401 113.509 243.609 112.428 243.734L111.189 243.88C111.042 243.887 110.896 243.887 110.749 243.88L111.177 243.807L112.417 243.62L116.923 242.931C120.764 242.326 126.048 241.409 131.838 240.157C137.628 238.906 142.81 237.592 146.55 236.559L150.955 235.329L152.161 234.985L152.566 234.912Z" fill="#E0E0E0"/>
<path d="M135.184 252.577L134.688 252.671L133.257 252.901C132.007 253.088 130.193 253.349 127.951 253.62C123.445 254.183 117.249 254.809 110.355 255.153C103.461 255.497 97.197 255.508 92.6796 255.393C90.4265 255.341 88.5903 255.268 87.3286 255.195L85.8641 255.122H85.3684H85.8866H87.3398C88.6016 255.122 90.4265 255.216 92.6909 255.247C97.197 255.32 103.461 255.247 110.355 254.945C117.249 254.642 123.456 254.006 127.94 253.485C130.193 253.224 131.996 252.995 133.246 252.828L134.699 252.64L135.184 252.577Z" fill="#E0E0E0"/>
<path d="M153.23 250.148C153.024 250.17 152.816 250.17 152.611 250.148H150.921C149.49 250.148 147.541 250.148 145.344 250.148C143.148 250.148 141.199 250.252 139.768 250.325L138.078 250.398C137.872 250.418 137.665 250.418 137.459 250.398C137.663 250.355 137.87 250.327 138.078 250.315L139.757 250.169C141.188 250.064 143.136 249.96 145.39 249.929C147.643 249.897 149.546 249.929 151.022 249.981L152.712 250.075L153.23 250.148Z" fill="#E0E0E0"/>
<path d="M85.9991 208.507C85.9991 208.559 81.9774 209.278 76.9869 210.102C71.9963 210.926 67.9746 211.552 67.9746 211.489C67.9746 211.427 71.9963 210.717 76.9869 209.894C81.9774 209.07 85.9879 208.444 85.9991 208.507Z" fill="#E0E0E0"/>
<path d="M85.3909 224.869C85.3909 224.921 81.6396 225.317 76.9982 225.734C72.3569 226.152 68.5718 226.444 68.5718 226.381C68.5718 226.318 72.3231 225.933 76.9757 225.515C81.6283 225.098 85.3909 224.806 85.3909 224.869Z" fill="#E0E0E0"/>
<path d="M86.9111 238.019C86.9111 238.082 83.0133 238.238 78.1918 238.374C73.3702 238.509 69.4724 238.572 69.4724 238.509C69.4724 238.447 73.3702 238.29 78.1918 238.155C83.0133 238.019 86.9111 237.957 86.9111 238.019Z" fill="#E0E0E0"/>
<path d="M83.6331 254.225C83.4195 254.243 83.2046 254.243 82.991 254.225C82.5854 254.225 81.9884 254.225 81.2561 254.121C77.4168 253.802 73.6563 252.922 70.1147 251.514C69.4388 251.242 68.8981 251.013 68.5376 250.836C68.3396 250.763 68.1538 250.665 67.9856 250.544C68.1874 250.601 68.3834 250.674 68.5714 250.763C68.9544 250.909 69.4951 251.128 70.1823 251.378C71.9528 252.03 73.7665 252.577 75.6122 253.015C77.4661 253.444 79.3474 253.765 81.2449 253.975L82.9685 254.142C83.1923 254.151 83.4147 254.179 83.6331 254.225Z" fill="#E0E0E0"/>
<path d="M84.5457 258.73C84.3663 258.886 84.1742 259.029 83.9712 259.158C83.5881 259.429 83.0249 259.794 82.3152 260.201C80.465 261.335 78.53 262.345 76.5248 263.225C74.5163 264.106 72.4419 264.852 70.3176 265.457C69.4952 265.676 68.8306 265.853 68.3687 265.947C68.1317 266.009 67.8909 266.057 67.6477 266.093C67.8728 265.997 68.1065 265.921 68.3462 265.863C68.808 265.738 69.4727 265.55 70.2613 265.3C74.4656 264.024 78.4838 262.273 82.225 260.086C82.946 259.669 83.5205 259.314 83.9148 259.043C84.1146 258.921 84.3257 258.817 84.5457 258.73Z" fill="#E0E0E0"/>
<path d="M96.4422 261.901C96.4422 261.901 96.4422 261.619 96.4422 261.077C96.4422 260.534 96.4985 259.679 96.5323 258.689C96.6112 256.603 96.7126 253.579 96.8365 249.918C97.0618 242.514 97.2533 232.284 97.1632 220.979C97.0731 209.675 96.7351 199.444 96.3971 192.04C96.2169 188.38 96.0592 185.408 95.9578 183.28C95.9578 182.29 95.8677 181.497 95.8339 180.892C95.8001 180.287 95.8339 180.068 95.8339 180.068C95.8339 180.068 95.8339 180.35 95.9015 180.892C95.969 181.434 96.0254 182.269 96.0254 183.312C96.1718 185.397 96.3521 188.38 96.5323 192.082C96.9153 199.476 97.2871 209.716 97.3772 221.021C97.4673 232.325 97.242 242.566 96.9829 249.97C96.8477 253.672 96.7126 256.665 96.5999 258.73L96.4647 261.118C96.476 261.619 96.4422 261.901 96.4422 261.901Z" fill="#E0E0E0"/>
<path d="M116.37 203.605C116.302 203.605 115.424 197.505 114.41 189.975C113.396 182.446 112.63 176.335 112.698 176.324C112.765 176.314 113.633 182.415 114.646 189.954C115.66 197.494 116.426 203.595 116.37 203.605Z" fill="#E0E0E0"/>
<path d="M114.557 215.952C114.222 214.604 113.967 213.239 113.791 211.864C113.441 209.602 113.205 207.756 113.261 207.745C113.594 209.094 113.85 210.459 114.027 211.833C114.285 213.196 114.462 214.571 114.557 215.952Z" fill="#E0E0E0"/>
<path d="M119.164 238.374C119.096 238.374 118.995 233.107 118.939 226.61C118.882 220.113 118.882 214.837 118.939 214.837C118.995 214.837 119.108 220.103 119.175 226.61C119.243 233.118 119.232 238.374 119.164 238.374Z" fill="#E0E0E0"/>
<path d="M118.803 261.577C118.747 261.577 117.992 256.811 117.125 250.93C116.257 245.048 115.604 240.272 115.672 240.261C115.739 240.251 116.494 245.017 117.361 250.899C118.229 256.78 118.871 261.525 118.803 261.577Z" fill="#E0E0E0"/>
<path d="M141.086 216.682C141.019 216.682 139.295 206.911 137.222 194.856C135.149 182.8 133.516 172.956 133.584 172.956C133.651 172.956 135.375 182.717 137.448 194.783C139.52 206.848 141.086 216.682 141.086 216.682Z" fill="#E0E0E0"/>
<path d="M138.27 245.111C138.214 245.111 137.628 240.772 136.963 235.412C136.299 230.052 135.837 225.682 135.837 225.682C135.837 225.682 136.49 230.021 137.155 235.381C137.82 240.741 138.338 245.111 138.27 245.111Z" fill="#E0E0E0"/>
<path d="M188.051 160.286C186.634 161.487 185.129 162.595 183.545 163.602C181.814 164.71 180.012 165.72 178.149 166.626C175.877 167.73 173.529 168.695 171.12 169.515C168.7 170.304 166.227 170.948 163.718 171.444C161.666 171.84 159.589 172.119 157.5 172.278C155.575 172.443 153.641 172.488 151.709 172.414H152.115H153.242C154.233 172.414 155.686 172.341 157.455 172.185C159.536 171.999 161.605 171.707 163.651 171.309C166.148 170.8 168.608 170.149 171.018 169.358C173.416 168.543 175.757 167.588 178.025 166.501C179.875 165.6 181.669 164.604 183.399 163.518C184.875 162.59 186.035 161.787 186.778 161.203L187.68 160.546L188.051 160.286Z" fill="#E0E0E0"/>
<path d="M188.153 160.306C188.136 160.217 188.136 160.125 188.153 160.035C188.153 159.795 188.209 159.535 188.232 159.253C188.322 158.45 188.435 157.48 188.559 156.365C188.806 153.924 189.111 150.556 189.291 146.822C189.471 143.089 189.505 139.71 189.482 137.26C189.482 136.133 189.482 135.174 189.482 134.36C189.482 134.079 189.482 133.818 189.482 133.578C189.482 133.338 189.482 133.297 189.482 133.297C189.497 133.387 189.497 133.478 189.482 133.568C189.482 133.818 189.482 134.068 189.539 134.36C189.539 135.049 189.618 136.039 189.651 137.26C189.651 139.71 189.651 143.1 189.527 146.833C189.404 150.566 189.021 153.945 188.716 156.375C188.57 157.595 188.435 158.575 188.322 159.264C188.322 159.545 188.232 159.795 188.198 160.035C188.164 160.275 188.153 160.306 188.153 160.306Z" fill="#E0E0E0"/>
<path d="M197.605 132.567C197.605 132.567 197.672 132.817 197.774 133.297C197.875 133.776 198.044 134.486 198.28 135.382C198.742 137.197 199.553 139.773 200.477 142.995C201.68 146.751 202.191 150.668 201.987 154.581C201.862 156.994 201.151 159.35 199.907 161.473C198.663 163.597 196.917 165.433 194.799 166.845C192.643 168.337 190.385 169.699 188.04 170.923C185.787 172.153 183.669 173.321 181.608 174.416C177.485 176.617 173.722 178.525 170.545 180.089C167.368 181.654 164.777 182.874 162.986 183.708L160.913 184.667L160.181 184.98L160.891 184.626L162.941 183.583C164.732 182.728 167.312 181.497 170.466 179.902C173.621 178.306 177.383 176.398 181.495 174.197C183.557 173.092 185.708 171.924 187.928 170.683C190.244 169.457 192.475 168.099 194.608 166.616C196.698 165.222 198.422 163.412 199.652 161.317C200.883 159.223 201.588 156.9 201.716 154.519C201.923 150.626 201.432 146.729 200.263 142.985C199.362 139.762 198.573 137.166 198.134 135.351C197.695 133.537 197.605 132.567 197.605 132.567Z" fill="#E0E0E0"/>
<path d="M72.864 243.098C72.864 243.098 72.864 242.868 72.864 242.451C72.864 242.034 72.9541 241.408 73.0217 240.605L73.6188 233.827C74.1032 228.102 74.7453 220.186 75.2635 211.437C75.7817 202.687 76.131 194.751 76.3901 189.005C76.4914 186.19 76.5703 183.885 76.6266 182.206C76.6266 181.455 76.6492 180.84 76.6942 180.36C76.6942 180.788 76.6942 181.455 76.6942 182.206C76.6942 183.885 76.6041 186.19 76.5365 189.016C76.3788 194.751 76.0521 202.687 75.5226 211.447C74.9932 220.207 74.3961 228.133 73.8103 233.837C73.5399 236.642 73.3034 238.947 73.1456 240.616C73.0555 241.367 72.9879 241.982 72.9429 242.451C72.8978 242.92 72.864 243.098 72.864 243.098Z" fill="#E0E0E0"/>
<path d="M75.8265 272.996C75.8265 272.996 75.8265 272.913 75.7138 272.746C75.6012 272.579 75.5561 272.277 75.466 272.006C75.252 271.359 74.959 270.42 74.6436 269.252C73.8191 266.197 73.1983 263.097 72.7848 259.971C72.3811 256.857 72.193 253.722 72.2216 250.585C72.2216 249.376 72.2216 248.396 72.3117 247.718C72.3117 247.436 72.3117 247.186 72.3117 246.946V246.675C72.3244 246.765 72.3244 246.856 72.3117 246.946V247.728C72.3117 248.395 72.3117 249.376 72.3117 250.585C72.3423 253.722 72.5566 256.856 72.9538 259.971C73.3633 263.086 73.9575 266.177 74.7337 269.232C75.0379 270.41 75.297 271.317 75.4885 272.006C75.5711 272.277 75.6387 272.527 75.6913 272.756L75.8265 272.996Z" fill="#E0E0E0"/>
<path d="M83.0251 269.868C83.0251 269.868 83.0251 269.618 83.0251 269.138C83.0251 268.658 83.0251 267.907 83.0251 267.052C83.0251 265.165 83.0251 262.547 83.1039 259.335C83.1039 252.828 83.1941 243.828 83.1039 233.89C83.0138 223.951 82.8561 214.941 82.6984 208.434C82.6083 205.222 82.5519 202.604 82.4956 200.717C82.4956 199.851 82.4956 199.152 82.4956 198.631C82.4956 198.11 82.4956 197.901 82.4956 197.901C82.4956 197.901 82.4956 198.151 82.4956 198.631C82.4956 199.111 82.4956 199.862 82.597 200.717C82.597 202.604 82.7434 205.222 82.8561 208.434C83.0589 214.941 83.2616 223.941 83.3405 233.89C83.4194 243.838 83.3405 252.828 83.2504 259.346C83.2504 262.547 83.149 265.175 83.1039 267.052C83.1039 267.918 83.1039 268.616 83.0476 269.138C82.9913 269.659 83.0251 269.868 83.0251 269.868Z" fill="#E0E0E0"/>
<path d="M96.9599 179.422C96.8923 179.422 96.6782 176.481 96.4754 172.852C96.2727 169.223 96.1713 166.282 96.2389 166.272C96.3065 166.261 96.5205 169.212 96.712 172.841C96.9035 176.471 97.0274 179.411 96.9599 179.422Z" fill="#E0E0E0"/>
<path d="M113.644 175.084C113.577 175.084 113.261 172.091 112.935 168.389C112.608 164.686 112.405 161.673 112.462 161.673C112.518 161.673 112.845 164.666 113.171 168.368C113.498 172.07 113.701 175.073 113.644 175.084Z" fill="#E0E0E0"/>
<path d="M131.793 171.256C131.725 171.256 130.813 168.534 129.754 165.145C128.695 161.756 127.884 158.992 127.94 158.972C127.996 158.951 128.92 161.693 129.979 165.083C131.038 168.472 131.849 171.235 131.793 171.256Z" fill="#E0E0E0"/>
<path d="M125.788 156.02C125.702 156.054 125.611 156.075 125.518 156.083L124.729 156.218L121.823 156.688C119.378 157.084 115.998 157.668 112.292 158.387C108.586 159.107 105.229 159.827 102.818 160.369L99.9566 161.015L99.1793 161.182C99.0863 161.198 98.9908 161.198 98.8977 161.182L99.1681 161.099L99.9341 160.89L102.773 160.181C105.184 159.597 108.53 158.846 112.247 158.095C115.965 157.345 119.344 156.823 121.8 156.458L124.707 156.062L125.506 155.968C125.602 155.973 125.697 155.991 125.788 156.02Z" fill="#E0E0E0"/>
<path d="M103.674 163.56C103.575 162.568 103.552 161.572 103.607 160.577C103.587 159.584 103.639 158.591 103.764 157.605C103.871 158.596 103.898 159.593 103.843 160.588C103.864 161.581 103.808 162.574 103.674 163.56Z" fill="#E0E0E0"/>
<path d="M120.2 160.859C119.915 159.981 119.697 159.086 119.547 158.179C119.323 157.284 119.179 156.374 119.119 155.457C119.645 157.228 120.021 159.034 120.245 160.859H120.2Z" fill="#E0E0E0"/>
</g>
<defs>
<filter id="filter0_d_24_1229" x="438.164" y="203.178" width="51.4465" height="59.1534" filterUnits="userSpaceOnUse" color-interpolation-filters="sRGB">
<feFlood flood-opacity="0" result="BackgroundImageFix"/>
<feColorMatrix in="SourceAlpha" type="matrix" values="0 0 0 0 0 0 0 0 0 0 0 0 0 0 0 0 0 0 127 0" result="hardAlpha"/>
<feOffset dy="4"/>
<feGaussianBlur stdDeviation="2"/>
<feComposite in2="hardAlpha" operator="out"/>
<feColorMatrix type="matrix" values="0 0 0 0 0 0 0 0 0 0 0 0 0 0 0 0 0 0 0.25 0"/>
<feBlend mode="normal" in2="BackgroundImageFix" result="effect1_dropShadow_24_1229"/>
<feBlend mode="normal" in="SourceGraphic" in2="effect1_dropShadow_24_1229" result="shape"/>
</filter>
<filter id="filter1_d_24_1229" x="82.3008" y="23.3551" width="43.9724" height="53.5491" filterUnits="userSpaceOnUse" color-interpolation-filters="sRGB">
<feFlood flood-opacity="0" result="BackgroundImageFix"/>
<feColorMatrix in="SourceAlpha" type="matrix" values="0 0 0 0 0 0 0 0 0 0 0 0 0 0 0 0 0 0 127 0" result="hardAlpha"/>
<feOffset dx="1" dy="1"/>
<feGaussianBlur stdDeviation="2"/>
<feComposite in2="hardAlpha" operator="out"/>
<feColorMatrix type="matrix" values="0 0 0 0 0 0 0 0 0 0 0 0 0 0 0 0 0 0 0.25 0"/>
<feBlend mode="normal" in2="BackgroundImageFix" result="effect1_dropShadow_24_1229"/>
<feBlend mode="normal" in="SourceGraphic" in2="effect1_dropShadow_24_1229" result="shape"/>
</filter>
<filter id="filter2_d_24_1229" x="32.6428" y="12.0576" width="29.1838" height="34.1036" filterUnits="userSpaceOnUse" color-interpolation-filters="sRGB">
<feFlood flood-opacity="0" result="BackgroundImageFix"/>
<feColorMatrix in="SourceAlpha" type="matrix" values="0 0 0 0 0 0 0 0 0 0 0 0 0 0 0 0 0 0 127 0" result="hardAlpha"/>
<feOffset dy="1"/>
<feGaussianBlur stdDeviation="2"/>
<feComposite in2="hardAlpha" operator="out"/>
<feColorMatrix type="matrix" values="0 0 0 0 0 0 0 0 0 0 0 0 0 0 0 0 0 0 0.25 0"/>
<feBlend mode="normal" in2="BackgroundImageFix" result="effect1_dropShadow_24_1229"/>
<feBlend mode="normal" in="SourceGraphic" in2="effect1_dropShadow_24_1229" result="shape"/>
</filter>
<filter id="filter3_d_24_1229" x="446.535" y="133.998" width="40.2832" height="48.0845" filterUnits="userSpaceOnUse" color-interpolation-filters="sRGB">
<feFlood flood-opacity="0" result="BackgroundImageFix"/>
<feColorMatrix in="SourceAlpha" type="matrix" values="0 0 0 0 0 0 0 0 0 0 0 0 0 0 0 0 0 0 127 0" result="hardAlpha"/>
<feOffset dx="1" dy="2"/>
<feGaussianBlur stdDeviation="2"/>
<feComposite in2="hardAlpha" operator="out"/>
<feColorMatrix type="matrix" values="0 0 0 0 0 0 0 0 0 0 0 0 0 0 0 0 0 0 0.25 0"/>
<feBlend mode="normal" in2="BackgroundImageFix" result="effect1_dropShadow_24_1229"/>
<feBlend mode="normal" in="SourceGraphic" in2="effect1_dropShadow_24_1229" result="shape"/>
</filter>
<filter id="filter4_d_24_1229" x="345.781" y="271.003" width="151.279" height="198.04" filterUnits="userSpaceOnUse" color-interpolation-filters="sRGB">
<feFlood flood-opacity="0" result="BackgroundImageFix"/>
<feColorMatrix in="SourceAlpha" type="matrix" values="0 0 0 0 0 0 0 0 0 0 0 0 0 0 0 0 0 0 127 0" result="hardAlpha"/>
<feOffset dx="4" dy="4"/>
<feGaussianBlur stdDeviation="2"/>
<feComposite in2="hardAlpha" operator="out"/>
<feColorMatrix type="matrix" values="0 0 0 0 0 0 0 0 0 0 0 0 0 0 0 0 0 0 0.25 0"/>
<feBlend mode="normal" in2="BackgroundImageFix" result="effect1_dropShadow_24_1229"/>
<feBlend mode="normal" in="SourceGraphic" in2="effect1_dropShadow_24_1229" result="shape"/>
</filter>
<filter id="filter5_d_24_1229" x="60.438" y="106.432" width="151.673" height="363.1" filterUnits="userSpaceOnUse" color-interpolation-filters="sRGB">
<feFlood flood-opacity="0" result="BackgroundImageFix"/>
<feColorMatrix in="SourceAlpha" type="matrix" values="0 0 0 0 0 0 0 0 0 0 0 0 0 0 0 0 0 0 127 0" result="hardAlpha"/>
<feOffset dx="4" dy="4"/>
<feGaussianBlur stdDeviation="2"/>
<feComposite in2="hardAlpha" operator="out"/>
<feColorMatrix type="matrix" values="0 0 0 0 0 0 0 0 0 0 0 0 0 0 0 0 0 0 0.25 0"/>
<feBlend mode="normal" in2="BackgroundImageFix" result="effect1_dropShadow_24_1229"/>
<feBlend mode="normal" in="SourceGraphic" in2="effect1_dropShadow_24_1229" result="shape"/>
</filter>
</defs>
</svg>
