<svg width="37" height="37" viewBox="0 0 37 37" fill="none" xmlns="http://www.w3.org/2000/svg">
<path d="M18.5004 2.77491C15.3903 2.77491 12.35 3.69716 9.76406 5.42505C7.17809 7.15293 5.16258 9.60884 3.97239 12.4822C2.7822 15.3556 2.4708 18.5174 3.07755 21.5677C3.6843 24.6181 5.18196 27.42 7.38114 29.6192C9.58032 31.8183 12.3823 33.316 15.4326 33.9228C18.483 34.5295 21.6447 34.2181 24.5181 33.0279C27.3915 31.8377 29.8474 29.8222 31.5753 27.2362C33.3031 24.6503 34.2254 21.61 34.2254 18.4999C34.2271 16.4344 33.8215 14.3888 33.0319 12.4802C32.2422 10.5716 31.084 8.8374 29.6235 7.37686C28.1629 5.91632 26.4287 4.75809 24.5201 3.96843C22.6115 3.17878 20.5659 2.7732 18.5004 2.77491ZM18.5004 30.5249C16.1221 30.5249 13.7972 29.8197 11.8197 28.4983C9.84216 27.177 8.30089 25.299 7.39075 23.1017C6.4806 20.9044 6.24247 18.4866 6.70645 16.1539C7.17044 13.8213 8.31571 11.6787 9.99744 9.99695C11.6792 8.31522 13.8218 7.16995 16.1544 6.70597C18.4871 6.24198 20.9049 6.48011 23.1022 7.39026C25.2994 8.3004 27.1775 9.84168 28.4988 11.8192C29.8201 13.7967 30.5254 16.1216 30.5254 18.4999C30.5286 20.0799 30.2197 21.6451 29.6165 23.1054C29.0133 24.5658 28.1277 25.8927 27.0104 27.0099C25.8932 28.1272 24.5663 29.0128 23.1059 29.616C21.6455 30.2192 20.0804 30.5281 18.5004 30.5249ZM22.9404 16.3724L20.3504 17.4824V11.0999C20.3504 10.6093 20.1555 10.1387 19.8085 9.79176C19.4616 9.44482 18.991 9.24991 18.5004 9.24991C18.0097 9.24991 17.5392 9.44482 17.1923 9.79176C16.8453 10.1387 16.6504 10.6093 16.6504 11.0999V20.3499C16.6427 20.6614 16.7152 20.9697 16.861 21.2451C17.0068 21.5204 17.2209 21.7537 17.4829 21.9224C17.7402 22.095 18.0395 22.1947 18.3489 22.211C18.6583 22.2273 18.9664 22.1595 19.2404 22.0149L24.4204 19.7024C25.3454 19.2399 25.8079 18.2224 25.3454 17.2974C24.8829 16.3724 23.8654 15.9099 22.9404 16.3724Z" fill="#874900"/>
</svg>
