<svg width="56" height="57" viewBox="0 0 56 57" fill="none" xmlns="http://www.w3.org/2000/svg">
<g clip-path="url(#clip0_572_1873)" filter="url(#filter0_d_572_1873)">
<g filter="url(#filter1_d_572_1873)">
<path d="M51.4375 25C51.4375 29.6355 50.0629 34.1669 47.4876 38.0212C44.9122 41.8755 41.2518 44.8795 36.9692 46.6534C32.6865 48.4274 27.974 48.8915 23.4276 47.9872C18.8812 47.0828 14.705 44.8506 11.4272 41.5728C8.1494 38.295 5.9172 34.1189 5.01286 29.5724C4.10851 25.026 4.57266 20.3135 6.34658 16.0309C8.12051 11.7482 11.1246 8.08778 14.9788 5.51243C18.8331 2.93709 23.3645 1.5625 28 1.5625C34.216 1.5625 40.1774 4.0318 44.5728 8.42719C48.9682 12.8226 51.4375 18.784 51.4375 25ZM7.68751 25C7.68751 29.0174 8.87882 32.9446 11.1108 36.285C13.3427 39.6254 16.5151 42.2289 20.2268 43.7663C23.9384 45.3037 28.0225 45.706 31.9628 44.9222C35.903 44.1384 39.5224 42.2039 42.3631 39.3631C45.2039 36.5224 47.1384 32.903 47.9222 28.9628C48.706 25.0225 48.3037 20.9384 46.7663 17.2267C45.2289 13.5151 42.6254 10.3427 39.285 8.11077C35.9447 5.87881 32.0174 4.6875 28 4.6875C22.6128 4.6875 17.4462 6.82756 13.6369 10.6369C9.82757 14.4462 7.68751 19.6128 7.68751 25Z" fill="black"/>
<path d="M34.0468 16.2656L25.3281 25L34.0468 33.7344C34.3378 34.0271 34.5012 34.4231 34.5012 34.8359C34.5012 35.2487 34.3378 35.6447 34.0468 35.9375C33.7541 36.2285 33.358 36.3919 32.9452 36.3919C32.5325 36.3919 32.1364 36.2285 31.8437 35.9375L21.9062 26C21.6428 25.7338 21.4951 25.3744 21.4951 25C21.4951 24.6255 21.6428 24.2662 21.9062 24L31.8437 14.0625C32.1364 13.7715 32.5325 13.6081 32.9452 13.6081C33.358 13.6081 33.7541 13.7715 34.0468 14.0625C34.3378 14.3552 34.5012 14.7513 34.5012 15.164C34.5012 15.5768 34.3378 15.9729 34.0468 16.2656Z" fill="black"/>
</g>
</g>
<defs>
<filter id="filter0_d_572_1873" x="-1" y="0" width="58" height="58" filterUnits="userSpaceOnUse" color-interpolation-filters="sRGB">
<feFlood flood-opacity="0" result="BackgroundImageFix"/>
<feColorMatrix in="SourceAlpha" type="matrix" values="0 0 0 0 0 0 0 0 0 0 0 0 0 0 0 0 0 0 127 0" result="hardAlpha"/>
<feOffset dy="4"/>
<feGaussianBlur stdDeviation="2"/>
<feComposite in2="hardAlpha" operator="out"/>
<feColorMatrix type="matrix" values="0 0 0 0 0 0 0 0 0 0 0 0 0 0 0 0 0 0 0.25 0"/>
<feBlend mode="normal" in2="BackgroundImageFix" result="effect1_dropShadow_572_1873"/>
<feBlend mode="normal" in="SourceGraphic" in2="effect1_dropShadow_572_1873" result="shape"/>
</filter>
<filter id="filter1_d_572_1873" x="0.5625" y="1.5625" width="54.875" height="54.875" filterUnits="userSpaceOnUse" color-interpolation-filters="sRGB">
<feFlood flood-opacity="0" result="BackgroundImageFix"/>
<feColorMatrix in="SourceAlpha" type="matrix" values="0 0 0 0 0 0 0 0 0 0 0 0 0 0 0 0 0 0 127 0" result="hardAlpha"/>
<feOffset dy="4"/>
<feGaussianBlur stdDeviation="2"/>
<feComposite in2="hardAlpha" operator="out"/>
<feColorMatrix type="matrix" values="0 0 0 0 0 0 0 0 0 0 0 0 0 0 0 0 0 0 0.25 0"/>
<feBlend mode="normal" in2="BackgroundImageFix" result="effect1_dropShadow_572_1873"/>
<feBlend mode="normal" in="SourceGraphic" in2="effect1_dropShadow_572_1873" result="shape"/>
</filter>
<clipPath id="clip0_572_1873">
<rect width="50" height="50" fill="white" transform="translate(3)"/>
</clipPath>
</defs>
</svg>
