<svg width="56" height="57" viewBox="0 0 56 57" fill="none" xmlns="http://www.w3.org/2000/svg">
<g clip-path="url(#clip0_572_1877)" filter="url(#filter0_d_572_1877)">
<g filter="url(#filter1_d_572_1877)">
<path d="M4.56249 25C4.56249 20.3645 5.93707 15.8331 8.51242 11.9788C11.0878 8.12455 14.7482 5.12051 19.0308 3.34658C23.3135 1.57265 28.026 1.10851 32.5724 2.01285C37.1188 2.91719 41.295 5.14939 44.5728 8.42719C47.8506 11.705 50.0828 15.8811 50.9871 20.4276C51.8915 24.974 51.4273 29.6865 49.6534 33.9691C47.8795 38.2518 44.8754 41.9122 41.0212 44.4876C37.1669 47.0629 32.6355 48.4375 28 48.4375C21.784 48.4375 15.8226 45.9682 11.4272 41.5728C7.03179 37.1774 4.56249 31.216 4.56249 25ZM48.3125 25C48.3125 20.9826 47.1212 17.0554 44.8892 13.715C42.6572 10.3746 39.4849 7.7711 35.7732 6.2337C32.0616 4.69629 27.9775 4.29404 24.0372 5.0778C20.097 5.86156 16.4776 7.79614 13.6369 10.6369C10.7961 13.4776 8.86155 17.097 8.07779 21.0372C7.29403 24.9775 7.69628 29.0616 9.23369 32.7733C10.7711 36.4849 13.3746 39.6573 16.715 41.8892C20.0553 44.1212 23.9826 45.3125 28 45.3125C33.3872 45.3125 38.5538 43.1724 42.3631 39.3631C46.1724 35.5538 48.3125 30.3872 48.3125 25Z" fill="black"/>
<path d="M21.9532 33.7344L30.6719 25L21.9532 16.2656C21.6622 15.9729 21.4988 15.5769 21.4988 15.1641C21.4988 14.7513 21.6622 14.3553 21.9532 14.0625C22.2459 13.7715 22.642 13.6081 23.0547 13.6081C23.4675 13.6081 23.8636 13.7715 24.1563 14.0625L34.0938 24C34.3572 24.2662 34.5049 24.6256 34.5049 25C34.5049 25.3745 34.3572 25.7338 34.0938 26L24.1563 35.9375C23.8636 36.2285 23.4675 36.3919 23.0548 36.3919C22.642 36.3919 22.2459 36.2285 21.9532 35.9375C21.6622 35.6448 21.4988 35.2487 21.4988 34.836C21.4988 34.4232 21.6622 34.0271 21.9532 33.7344Z" fill="black"/>
</g>
</g>
<defs>
<filter id="filter0_d_572_1877" x="-1" y="0" width="58" height="58" filterUnits="userSpaceOnUse" color-interpolation-filters="sRGB">
<feFlood flood-opacity="0" result="BackgroundImageFix"/>
<feColorMatrix in="SourceAlpha" type="matrix" values="0 0 0 0 0 0 0 0 0 0 0 0 0 0 0 0 0 0 127 0" result="hardAlpha"/>
<feOffset dy="4"/>
<feGaussianBlur stdDeviation="2"/>
<feComposite in2="hardAlpha" operator="out"/>
<feColorMatrix type="matrix" values="0 0 0 0 0 0 0 0 0 0 0 0 0 0 0 0 0 0 0.25 0"/>
<feBlend mode="normal" in2="BackgroundImageFix" result="effect1_dropShadow_572_1877"/>
<feBlend mode="normal" in="SourceGraphic" in2="effect1_dropShadow_572_1877" result="shape"/>
</filter>
<filter id="filter1_d_572_1877" x="0.5625" y="1.5625" width="54.875" height="54.875" filterUnits="userSpaceOnUse" color-interpolation-filters="sRGB">
<feFlood flood-opacity="0" result="BackgroundImageFix"/>
<feColorMatrix in="SourceAlpha" type="matrix" values="0 0 0 0 0 0 0 0 0 0 0 0 0 0 0 0 0 0 127 0" result="hardAlpha"/>
<feOffset dy="4"/>
<feGaussianBlur stdDeviation="2"/>
<feComposite in2="hardAlpha" operator="out"/>
<feColorMatrix type="matrix" values="0 0 0 0 0 0 0 0 0 0 0 0 0 0 0 0 0 0 0.25 0"/>
<feBlend mode="normal" in2="BackgroundImageFix" result="effect1_dropShadow_572_1877"/>
<feBlend mode="normal" in="SourceGraphic" in2="effect1_dropShadow_572_1877" result="shape"/>
</filter>
<clipPath id="clip0_572_1877">
<rect width="50" height="50" fill="white" transform="translate(53 50) rotate(180)"/>
</clipPath>
</defs>
</svg>
