<svg width="406" height="406" viewBox="0 0 406 406" fill="none" xmlns="http://www.w3.org/2000/svg">
<path d="M406 310.509H0V310.712H406V310.509Z" fill="#EBEBEB"/>
<path d="M365.319 323.574H338.426V323.777H365.319V323.574Z" fill="#EBEBEB"/>
<path d="M268.951 325.782H261.895V325.985H268.951V325.782Z" fill="#EBEBEB"/>
<path d="M337.614 316.038H322.031V316.241H337.614V316.038Z" fill="#EBEBEB"/>
<path d="M77.6679 317.403H42.5977V317.606H77.6679V317.403Z" fill="#EBEBEB"/>
<path d="M90.0423 317.403H84.9023V317.606H90.0423V317.403Z" fill="#EBEBEB"/>
<path d="M182.822 320.829H106.754V321.032H182.822V320.829Z" fill="#EBEBEB"/>
<path d="M192.444 274.294H35.6548C34.4265 274.291 33.2493 273.802 32.3815 272.933C31.5137 272.063 31.0264 270.885 31.0264 269.657V49.2558C31.0371 48.0346 31.5292 46.8669 32.3958 46.0064C33.2624 45.1459 34.4335 44.662 35.6548 44.6599H192.444C193.674 44.6599 194.853 45.1484 195.722 46.0179C196.592 46.8874 197.08 48.0667 197.08 49.2964V269.657C197.08 270.887 196.592 272.066 195.722 272.936C194.853 273.805 193.674 274.294 192.444 274.294ZM35.6548 44.8223C34.4803 44.8245 33.3547 45.2925 32.525 46.1237C31.6954 46.9549 31.2294 48.0814 31.2294 49.2558V269.657C31.2294 270.831 31.6954 271.958 32.525 272.789C33.3547 273.62 34.4803 274.088 35.6548 274.09H192.444C193.619 274.088 194.745 273.621 195.576 272.79C196.407 271.959 196.875 270.832 196.877 269.657V49.2558C196.875 48.0806 196.407 46.9542 195.576 46.1232C194.745 45.2922 193.619 44.8245 192.444 44.8223H35.6548Z" fill="#EBEBEB"/>
<path d="M368.088 274.294H211.291C210.062 274.291 208.884 273.802 208.015 272.933C207.146 272.064 206.656 270.886 206.654 269.657V49.2558C206.667 48.0339 207.161 46.8662 208.029 46.0059C208.897 45.1456 210.069 44.662 211.291 44.6599H368.088C369.308 44.6641 370.477 45.1489 371.342 46.0092C372.207 46.8695 372.698 48.036 372.708 49.2558V269.657C372.708 270.884 372.222 272.061 371.356 272.93C370.49 273.799 369.315 274.289 368.088 274.294ZM211.291 44.8223C210.116 44.8245 208.989 45.2922 208.158 46.1232C207.327 46.9542 206.859 48.0806 206.857 49.2558V269.657C206.859 270.832 207.327 271.959 208.158 272.79C208.989 273.621 210.116 274.088 211.291 274.09H368.088C369.263 274.088 370.39 273.621 371.221 272.79C372.052 271.959 372.519 270.832 372.522 269.657V49.2558C372.519 48.0806 372.052 46.9542 371.221 46.1232C370.39 45.2922 369.263 44.8245 368.088 44.8223H211.291Z" fill="#EBEBEB"/>
<path d="M49.4183 159.875H108.954L108.954 61.4357L49.4183 61.4357L49.4183 159.875Z" fill="#F5F5F5"/>
<path d="M49.4098 61.4277H48.2324V159.867H49.4098V61.4277Z" fill="#E0E0E0"/>
<path d="M55.4595 155.539H102.921L102.921 65.7638H55.4595L55.4595 155.539Z" fill="#FAFAFA"/>
<path d="M123.001 194.425H182.537V95.9865L123.001 95.9865L123.001 194.425Z" fill="#F5F5F5"/>
<path d="M123.002 95.9946H121.824V194.433H123.002V95.9946Z" fill="#E0E0E0"/>
<path d="M129.043 190.097H176.505V100.322H129.043V190.097Z" fill="#FAFAFA"/>
<path d="M84.6101 285.069C86.088 258.273 82.1741 215.237 77.9436 200.304C77.3833 198.331 76.75 196.041 75.7837 195.741C73.0229 194.864 71.7805 199.192 72.1216 200.686C73.7456 207.88 75.264 225.736 76.75 256.795C77.4889 272.223 76.75 282.844 78.7313 285.077L84.6101 285.069Z" fill="#E6E6E6"/>
<path d="M80.2094 225.346C84.0908 212.801 133.801 199.914 119.47 213.41C115.905 216.771 99.3077 225.63 92.495 234.944C87.2008 242.179 81.8497 254.351 80.4368 261.099C79.8197 246.905 77.6273 233.71 80.2094 225.346Z" fill="#E6E6E6"/>
<path d="M85.869 241.253C94.5249 222.163 122.206 218.736 114.768 228.813C111.845 232.768 101.126 237.283 94.3057 246.596C89.0114 253.831 83.6604 265.995 82.2556 272.751C81.6304 258.549 82.2556 249.227 85.869 241.253Z" fill="#E6E6E6"/>
<path d="M74.9885 239.629C64.741 215.074 27.722 213.117 37.5715 224.526C41.3148 228.87 54.3962 236.82 64.2782 247.067C71.9597 255.025 80.6156 268.179 83.5632 275.487C81.655 260.424 79.1216 249.536 74.9885 239.629Z" fill="#E6E6E6"/>
<path d="M79.2915 212.151C88.4671 195.335 116.238 193.532 108.304 202.732C105.194 206.353 95.0768 210.941 88.4671 219.979C83.3272 226.994 77.156 236.154 75.7837 242.715C75.1828 228.927 75.2234 219.613 79.2915 212.151Z" fill="#E6E6E6"/>
<path d="M71.3013 212.484C64.0664 202.026 31.6676 190.528 40.0799 199.996C48.9389 209.926 55.2319 208.221 63.6279 216.893C70.1239 223.633 77.4319 234.806 79.9491 240.929C78.317 228.172 76.4819 219.955 71.3013 212.484Z" fill="#E6E6E6"/>
<path d="M79.9007 200.442C84.4966 192.176 103.449 186.094 98.5036 192.436C95.0526 196.837 90.9114 199.857 86.5185 205.85C83.1162 210.511 78.4878 216.365 77.5865 220.71C77.1805 211.575 77.1399 205.371 79.9007 200.442Z" fill="#E6E6E6"/>
<path d="M72.4221 202.943C67.7937 197.811 43.0358 185.631 48.7198 193.451C50.9365 196.528 60.3801 204.007 66.7381 210.616C71.6831 215.732 77.1073 219.906 78.9993 224.558C77.7488 214.887 77.0586 208.067 72.4221 202.943Z" fill="#E6E6E6"/>
<path d="M78.7637 220.953C71.9997 213.467 22.6869 203.82 35.3623 212.086C39.6983 214.912 58.7641 219.768 68.0615 229.406C75.2802 236.885 77.8786 249.292 80.6475 256.088C87.9393 244.144 85.5357 228.448 78.7637 220.953Z" fill="#E6E6E6"/>
<path d="M70.3191 283.981L70.9524 306.384C71.0174 310.639 72.0081 310.509 73.2098 310.509H89.1494C90.343 310.509 91.3337 310.639 91.4067 306.384L92.0401 283.981C92.1132 279.368 91.0819 275.479 89.7827 275.479H72.5764C71.2772 275.479 70.246 279.368 70.3191 283.981Z" fill="#F5F5F5"/>
<path d="M69.3696 279.563H92.9907C93.1456 279.573 93.2987 279.526 93.4223 279.432C93.546 279.339 93.6319 279.204 93.6646 279.052L94.2249 274.765C94.2288 274.676 94.2137 274.589 94.1807 274.507C94.1478 274.425 94.0977 274.351 94.0338 274.29C93.97 274.23 93.8938 274.183 93.8105 274.154C93.7272 274.126 93.6387 274.115 93.5509 274.123H68.8012C68.7137 274.116 68.6257 274.128 68.543 274.157C68.4603 274.187 68.3847 274.233 68.3211 274.293C68.2576 274.354 68.2074 274.427 68.174 274.508C68.1406 274.59 68.1247 274.677 68.1272 274.765L68.6875 279.052C68.7219 279.204 68.8094 279.339 68.9344 279.433C69.0594 279.527 69.2137 279.573 69.3696 279.563Z" fill="#F5F5F5"/>
<path d="M236.187 184.779H218.307V305.084H236.187V184.779Z" fill="#F0F0F0"/>
<path d="M357.28 305.084H221.741V310.509H357.28V305.084Z" fill="#F0F0F0"/>
<path d="M236.187 305.084H360.715V184.779H236.187V305.084Z" fill="#F5F5F5"/>
<path d="M234.335 180.045H216.057V184.779H234.335V180.045Z" fill="#F0F0F0"/>
<path d="M234.335 184.779L362.964 184.779V180.045L234.335 180.045V184.779Z" fill="#FAFAFA"/>
<path d="M354.195 241.578H242.707V194.799H354.195V241.578ZM243.763 240.555H353.172V195.822H243.73L243.763 240.555Z" fill="#E0E0E0"/>
<path d="M354.195 295.065H242.707V248.935H354.195V295.065ZM243.763 294.041H353.172V249.958H243.73L243.763 294.041Z" fill="#E0E0E0"/>
<path d="M320.155 203.999H276.746C276.236 203.997 275.748 203.793 275.387 203.433C275.027 203.072 274.823 202.584 274.821 202.074C274.823 201.565 275.027 201.076 275.387 200.716C275.748 200.355 276.236 200.152 276.746 200.15H320.155C320.665 200.152 321.153 200.355 321.514 200.716C321.874 201.076 322.078 201.565 322.08 202.074C322.078 202.584 321.874 203.072 321.514 203.433C321.153 203.793 320.665 203.997 320.155 203.999Z" fill="#E0E0E0"/>
<path d="M320.163 254.286H276.746C275.683 254.286 274.821 255.147 274.821 256.21C274.821 257.273 275.683 258.135 276.746 258.135H320.163C321.226 258.135 322.088 257.273 322.088 256.21C322.088 255.147 321.226 254.286 320.163 254.286Z" fill="#E0E0E0"/>
<path d="M292.653 179.996H344.297L348.486 133.948H296.843L292.653 179.996Z" fill="#E6E6E6"/>
<path d="M290.899 179.996H342.543L346.733 133.948H295.089L290.899 179.996Z" fill="#F0F0F0"/>
<path d="M337.905 174.897L341.17 139.047H299.725L296.461 174.897H337.905Z" fill="white"/>
<path d="M280.692 146.371L277.631 179.996H302.381L305.442 146.371H280.692Z" fill="#E6E6E6"/>
<path d="M279.409 146.371L276.348 179.996H301.097L304.159 146.371H279.409Z" fill="#F0F0F0"/>
<path d="M282.795 150.09L280.408 176.277H297.72L300.099 150.09H282.795Z" fill="white"/>
<path d="M203 347.179C289.951 347.179 360.439 343.063 360.439 337.987C360.439 332.91 289.951 328.795 203 328.795C116.049 328.795 45.5615 332.91 45.5615 337.987C45.5615 343.063 116.049 347.179 203 347.179Z" fill="#F5F5F5"/>
<path d="M240.612 92.3407C239.865 90.4475 238.743 88.7249 237.313 87.2763C235.884 85.8276 234.176 84.6829 232.293 83.9109C230.41 83.1388 228.39 82.7553 226.355 82.7834C224.32 82.8115 222.311 83.2507 220.45 84.0745C213.532 87.1276 209.78 96.0028 212.387 103.092C213.689 106.671 216.301 109.622 219.695 111.35C221.107 112.026 222.304 113.08 223.154 114.395L225.298 117.821C226.001 118.943 227.074 119.784 228.331 120.199C229.588 120.614 230.951 120.577 232.184 120.095L237.591 117.959C238.822 117.469 239.842 116.565 240.476 115.403C241.111 114.24 241.32 112.893 241.067 111.593L240.255 107.484C239.994 106.03 240.143 104.531 240.685 103.157C242.005 99.6672 241.979 95.8118 240.612 92.3407Z" fill="#535353"/>
<path d="M232.898 126.932C232.551 126.931 232.209 126.859 231.891 126.721C231.585 126.591 231.308 126.402 231.076 126.163C230.845 125.925 230.663 125.642 230.543 125.332C230.306 124.713 230.322 124.025 230.588 123.417C230.854 122.809 231.348 122.331 231.964 122.084L239.134 119.25C239.753 119.011 240.442 119.026 241.051 119.292C241.659 119.558 242.137 120.054 242.382 120.671C242.511 120.977 242.577 121.306 242.577 121.638C242.577 121.97 242.511 122.298 242.382 122.604C242.115 123.219 241.616 123.703 240.993 123.952L233.856 126.753C233.552 126.877 233.226 126.938 232.898 126.932ZM240.06 119.859C239.845 119.858 239.633 119.9 239.434 119.981L232.232 122.815C231.916 122.937 231.643 123.151 231.448 123.429C231.254 123.707 231.147 124.036 231.141 124.375C231.135 124.714 231.23 125.048 231.414 125.332C231.598 125.617 231.863 125.84 232.175 125.974C232.383 126.062 232.607 126.108 232.833 126.108C233.059 126.108 233.283 126.062 233.491 125.974L240.66 123.148C240.869 123.065 241.059 122.94 241.219 122.783C241.38 122.625 241.507 122.438 241.594 122.23C241.685 122.024 241.732 121.802 241.732 121.577C241.732 121.352 241.685 121.129 241.594 120.923C241.465 120.599 241.241 120.322 240.951 120.128C240.661 119.933 240.319 119.831 239.97 119.835L240.06 119.859Z" fill="#263238"/>
<path d="M236.552 131.3C236.334 131.298 236.119 131.254 235.919 131.17C235.548 130.994 235.258 130.683 235.107 130.302L234.985 129.985C234.909 129.793 234.871 129.588 234.874 129.381C234.877 129.175 234.921 128.971 235.004 128.782C235.086 128.592 235.205 128.421 235.353 128.278C235.502 128.135 235.678 128.022 235.87 127.947L240.344 126.177C240.734 126.035 241.163 126.048 241.543 126.213C241.923 126.377 242.227 126.681 242.39 127.062L242.512 127.378C242.662 127.766 242.653 128.197 242.487 128.579C242.321 128.96 242.013 129.261 241.627 129.417L237.104 131.187C236.929 131.258 236.741 131.297 236.552 131.3ZM240.896 126.875C240.802 126.878 240.708 126.897 240.62 126.932L236.146 128.702C236.053 128.738 235.968 128.792 235.896 128.861C235.824 128.93 235.766 129.012 235.726 129.104C235.686 129.195 235.665 129.293 235.663 129.393C235.661 129.493 235.679 129.592 235.716 129.684L235.837 130.001C235.874 130.094 235.929 130.18 235.999 130.252C236.068 130.324 236.152 130.382 236.244 130.422C236.336 130.462 236.435 130.483 236.535 130.485C236.635 130.486 236.735 130.468 236.828 130.432L241.302 128.661C241.396 128.625 241.481 128.57 241.554 128.5C241.626 128.431 241.684 128.347 241.724 128.255C241.763 128.164 241.782 128.066 241.782 127.967C241.782 127.868 241.763 127.77 241.724 127.679L241.603 127.362C241.542 127.223 241.444 127.104 241.319 127.018C241.194 126.931 241.048 126.882 240.896 126.875Z" fill="#263238"/>
<path d="M223.227 106.746C222.674 106.747 222.13 106.597 221.655 106.312C221.18 106.027 220.792 105.618 220.533 105.129C220.273 104.64 220.151 104.089 220.181 103.537C220.211 102.984 220.391 102.449 220.702 101.991C221.013 101.533 221.443 101.168 221.945 100.936C222.448 100.704 223.004 100.613 223.555 100.674C224.105 100.734 224.629 100.944 225.069 101.28C225.509 101.616 225.849 102.065 226.053 102.58L227.174 105.414L224.34 106.526C223.986 106.67 223.609 106.744 223.227 106.746ZM223.227 101.468C222.897 101.464 222.57 101.534 222.27 101.672C221.97 101.81 221.704 102.013 221.492 102.266C221.28 102.519 221.127 102.816 221.043 103.136C220.96 103.456 220.948 103.79 221.009 104.114C221.071 104.439 221.203 104.746 221.397 105.013C221.591 105.28 221.843 105.501 222.132 105.66C222.422 105.818 222.744 105.91 223.073 105.93C223.403 105.949 223.733 105.895 224.039 105.771L226.118 104.959L225.306 102.889C225.138 102.474 224.849 102.12 224.477 101.872C224.105 101.625 223.666 101.495 223.219 101.5L223.227 101.468Z" fill="white"/>
<path d="M232.208 120.371L226.126 104.951L231.721 102.742L237.803 118.162L237.047 118.463L231.258 103.798L227.173 105.414L232.963 120.071L232.208 120.371Z" fill="white"/>
<path d="M231.258 103.798L230.145 100.964C229.924 100.404 229.873 99.7904 230 99.2015C230.127 98.6126 230.426 98.0746 230.859 97.6556C231.292 97.2366 231.84 96.9555 232.432 96.8479C233.025 96.7402 233.637 96.8108 234.189 97.0507C234.742 97.2906 235.211 97.6891 235.537 98.1958C235.863 98.7024 236.032 99.2943 236.021 99.8967C236.011 100.499 235.822 101.085 235.478 101.58C235.135 102.075 234.652 102.457 234.092 102.677L231.258 103.798ZM232.971 97.6105C232.693 97.6143 232.417 97.6694 232.159 97.7729C231.886 97.8803 231.637 98.0407 231.426 98.2448C231.215 98.4489 231.047 98.6927 230.93 98.9621C230.814 99.2316 230.752 99.5213 230.749 99.8147C230.745 100.108 230.799 100.399 230.908 100.672L231.72 102.742L233.791 101.93C234.275 101.74 234.678 101.388 234.929 100.933C235.181 100.478 235.266 99.9493 235.17 99.4384C235.074 98.9274 234.802 98.4661 234.402 98.1339C234.002 97.8017 233.499 97.6195 232.979 97.6186L232.971 97.6105Z" fill="white"/>
<path d="M243.868 142.498C240.819 142.502 237.774 142.255 234.766 141.759L234.904 140.947C237.856 141.434 240.843 141.679 243.836 141.678L243.868 142.498Z" fill="#535353"/>
<path d="M260.652 150.91L261.082 150.033C262.58 146.699 262.881 142.951 261.935 139.42C258.775 140.553 255.511 141.369 252.191 141.856L252.069 141.044C255.472 140.535 258.814 139.675 262.04 138.479L262.446 138.332L262.568 138.738C263.599 142.262 263.465 146.024 262.187 149.465C272.166 145.494 282.584 131.398 282.584 114.606C282.584 99.6974 265.199 87.5661 243.827 87.5661C222.455 87.5661 205.079 99.6974 205.079 114.606C205.079 125.446 214.311 135.214 228.627 139.485L228.391 140.297C213.775 135.921 204.291 125.852 204.291 114.638C204.291 99.2833 222.041 86.7866 243.852 86.7866C265.662 86.7866 283.42 99.2833 283.42 114.638C283.42 132.291 272.052 147.045 261.578 150.594L260.652 150.91Z" fill="#535353"/>
<path d="M283.194 93.6432L256.144 98.4761C254.202 98.8231 252.908 100.679 253.255 102.622L256.135 118.736C256.482 120.679 258.338 121.972 260.28 121.625L287.33 116.792C289.272 116.445 290.566 114.589 290.218 112.647L287.339 96.5319C286.992 94.5895 285.136 93.2961 283.194 93.6432Z" fill="#535353"/>
<path d="M276.697 106.77L267.115 103.311L268.91 113.331L276.697 106.77Z" fill="white"/>
<path d="M174.791 240.896H105.803C104.373 240.896 103.213 242.056 103.213 243.486V247.165C103.213 248.595 104.373 249.755 105.803 249.755H174.791C176.221 249.755 177.381 248.595 177.381 247.165V243.486C177.381 242.056 176.221 240.896 174.791 240.896Z" fill="#535353"/>
<path d="M174.011 333.115H176.066L173.703 249.755H170.853L174.011 333.115Z" fill="#535353"/>
<path opacity="0.3" d="M174.011 333.115H176.066L173.703 249.755H170.853L174.011 333.115Z" fill="white"/>
<path d="M155.068 333.115H153.014L155.385 249.755H158.227L155.068 333.115Z" fill="#535353"/>
<path opacity="0.3" d="M155.068 333.115H153.014L155.385 249.755H158.227L155.068 333.115Z" fill="white"/>
<path d="M125.527 333.115H127.589L125.218 249.755H122.368L125.527 333.115Z" fill="#535353"/>
<path opacity="0.3" d="M125.527 333.115H127.589L125.218 249.755H122.368L125.527 333.115Z" fill="white"/>
<path d="M106.591 333.115H104.528L106.899 249.755H109.741L106.591 333.115Z" fill="#535353"/>
<path opacity="0.3" d="M106.591 333.115H104.528L106.899 249.755H109.741L106.591 333.115Z" fill="white"/>
<path d="M195.944 311.93L203.268 309.453L197.243 292.353L189.927 294.829L195.944 311.93Z" fill="#FFC3BD"/>
<path d="M202.723 306.627L194.701 310.184C194.635 310.207 194.574 310.245 194.523 310.293C194.473 310.342 194.433 310.402 194.408 310.467C194.383 310.533 194.372 310.603 194.376 310.673C194.38 310.744 194.4 310.812 194.433 310.874L197.478 317.062C197.669 317.386 197.97 317.631 198.326 317.752C198.682 317.872 199.07 317.861 199.419 317.719C202.188 316.444 203.43 315.705 206.962 314.155C209.138 313.205 213.515 311.507 216.227 309.762C218.939 308.016 216.812 305.499 215.48 306.002C212.321 307.204 207.068 307.155 204.193 306.538C203.706 306.415 203.192 306.447 202.723 306.627Z" fill="#263238"/>
<path opacity="0.2" d="M189.927 294.837L197.251 292.353L200.686 302.137L193.24 304.265L189.927 294.837Z" fill="black"/>
<path d="M144.065 217.77C144.065 217.77 180.605 224.364 183.553 236.365C189.343 260.092 202.4 297.2 202.4 297.2L188.498 301.26C188.498 301.26 168.62 258.703 166.119 244.379C145.616 244.379 120.647 246.003 117.399 237.331C114.549 229.634 115.564 217.803 115.564 217.803L144.065 217.77Z" fill="#263238"/>
<path d="M187.734 303.688L203.974 298.329L202.586 290.996L184.876 297.232L187.734 303.688Z" fill="#535353"/>
<path d="M164.113 314.528L172.201 315.145L167.451 295.186L159.907 296.891L164.113 314.528Z" fill="#FFC3BD"/>
<path d="M171.998 313.197L163.285 312.23C163.215 312.217 163.143 312.22 163.074 312.237C163.005 312.255 162.941 312.287 162.885 312.332C162.83 312.376 162.784 312.433 162.753 312.496C162.721 312.56 162.703 312.63 162.701 312.701L162.246 319.587C162.262 319.96 162.405 320.316 162.652 320.595C162.899 320.875 163.234 321.061 163.602 321.122C166.631 321.406 168.084 321.382 171.917 321.804C174.272 322.064 178.916 322.786 182.14 322.616C185.364 322.445 184.779 319.205 183.366 318.986C180.029 318.442 175.514 315.779 173.33 313.806C172.961 313.468 172.495 313.255 171.998 313.197Z" fill="#263238"/>
<path opacity="0.2" d="M159.907 296.9L167.451 295.194L169.846 305.279L162.221 306.619L159.907 296.9Z" fill="black"/>
<path d="M125.048 217.77C125.048 217.77 169.473 224.421 167.434 241.237C164.503 265.483 172.03 300.554 172.03 300.554L157.78 303.103C157.78 303.103 147.305 259.515 147.224 244.972C132.77 244.972 107.517 246.003 104.285 237.299C101.435 229.601 102.45 217.77 102.45 217.77H125.048Z" fill="#263238"/>
<path d="M156.797 305.474L173.516 301.837L172.899 294.407L154.629 298.751L156.797 305.474Z" fill="#535353"/>
<path d="M148.482 171.04C149.668 175.684 150.829 180.369 151.966 185.038C153.103 189.707 154.215 194.385 155.392 198.997L156.278 202.431L156.732 204.12L156.968 204.932V205.038V205.087C156.968 205.087 156.968 205.014 156.927 204.981C156.866 204.815 156.79 204.655 156.7 204.502L156.578 204.315L156.489 204.194L156.326 204.015C156.156 203.852 156.131 203.877 156.172 203.917C156.259 204.008 156.358 204.087 156.464 204.153C156.822 204.394 157.196 204.608 157.585 204.794C158.462 205.225 159.485 205.606 160.532 206.029C164.755 207.596 169.416 208.927 173.947 210.365L173.232 215.545C170.739 215.574 168.245 215.477 165.762 215.253C163.235 215.045 160.721 214.692 158.234 214.197C156.899 213.938 155.581 213.596 154.288 213.174C153.542 212.936 152.812 212.648 152.104 212.314C151.668 212.111 151.248 211.877 150.845 211.615C150.285 211.258 149.77 210.836 149.311 210.357C149.164 210.194 149.026 210.04 148.864 209.829L148.637 209.52L148.409 209.139C148.242 208.853 148.098 208.554 147.979 208.245L147.849 207.872L147.532 206.979L146.923 205.209C146.525 204.031 146.111 202.854 145.778 201.684C144.309 196.991 142.969 192.322 141.718 187.621C140.468 182.919 139.282 178.226 138.194 173.467L148.482 171.04Z" fill="#FFC3BD"/>
<path d="M137.066 165.42C141.524 160.451 148.588 163.926 151.568 175.051C153.014 180.459 152.559 183.284 152.559 183.284L137.18 188.027C133.875 180.719 131 172.193 137.066 165.42Z" fill="#535353"/>
<g opacity="0.2">
<path d="M137.066 165.42C141.524 160.451 148.588 163.926 151.568 175.051C153.014 180.459 152.559 183.284 152.559 183.284L137.18 188.027C133.875 180.719 131 172.193 137.066 165.42Z" fill="black"/>
</g>
<path d="M182.01 208.278L180.629 207.856C179.794 207.603 178.915 207.523 178.047 207.62L175.083 207.969C174.128 208.196 173.231 208.623 172.452 209.22C171.672 209.818 171.028 210.573 170.561 211.437L169.554 213.402C170.057 217.023 177.398 215.838 177.398 215.838H184.324L184.097 210.917C184.062 210.316 183.843 209.74 183.47 209.268C183.096 208.796 182.586 208.45 182.01 208.278Z" fill="#FFC3BD"/>
<path d="M186.76 200.353C186.563 201.687 186.001 202.94 185.136 203.974C184.397 205.054 183.634 206.126 182.863 207.222C181.312 209.342 179.728 211.428 177.991 213.418C177.915 213.504 177.81 213.559 177.696 213.573C177.582 213.587 177.467 213.559 177.372 213.495C177.277 213.43 177.209 213.333 177.181 213.221C177.153 213.11 177.167 212.992 177.219 212.89C178.421 210.535 179.777 208.294 181.166 206.069C181.864 204.96 182.579 203.858 183.309 202.764C183.94 201.569 184.887 200.569 186.046 199.874C186.132 199.821 186.23 199.794 186.331 199.795C186.431 199.796 186.53 199.825 186.614 199.879C186.699 199.934 186.767 200.011 186.81 200.101C186.853 200.192 186.87 200.294 186.858 200.393L186.76 200.353Z" fill="#263238"/>
<path d="M138.096 160.606L129.432 158.17L118.284 157.65C116.593 157.571 114.923 158.049 113.531 159.011C112.138 159.974 111.101 161.367 110.578 162.977C108.45 169.473 106.518 178.827 105.072 186.922C103.357 197.119 102.486 207.439 102.466 217.778H144.065C144.917 194.677 147.637 183.39 149.245 175.213C149.717 172.791 149.371 170.28 148.261 168.076C147.151 165.871 145.341 164.098 143.115 163.033L138.096 160.606Z" fill="#535353"/>
<path d="M126.478 162.229C127.533 164.942 131.618 170.739 136.368 173.005C139.007 171.097 139.575 166.931 139.973 164.982L126.478 162.229Z" fill="white"/>
<path d="M139.973 164.982C140.281 163.91 140.153 162.76 139.616 161.783C138.942 160.727 139.112 159.517 139.786 158.275C140.321 157.286 140.99 156.376 141.776 155.571L136.327 149.197L131.885 144.049C131.504 148.864 131.13 154.832 127.33 158.567C125.99 159.891 125.706 160.289 126.477 162.23C127.533 164.942 131.349 168.726 136.059 170.991C137.079 170.301 137.951 169.414 138.623 168.382C139.295 167.35 139.754 166.194 139.973 164.982Z" fill="#FFC3BD"/>
<path opacity="0.2" d="M140.102 154.475L137.025 149.481C136.968 149.611 136.895 149.749 136.822 149.895C136.544 150.513 136.322 151.155 136.156 151.811C135.595 154.028 137.479 157.195 139.542 158.705C139.631 158.567 139.704 158.421 139.785 158.275C140.311 157.337 140.934 156.458 141.645 155.652C141.685 155.621 141.729 155.594 141.775 155.571L140.102 154.475Z" fill="black"/>
<path d="M150.854 142.538C151.568 147.143 158.162 135.295 154.475 132.697C149.977 129.514 149.506 133.777 150.854 142.538Z" fill="#263238"/>
<path d="M132.088 136.53C131.666 144.008 131.025 148.352 134.459 152.672C139.624 159.168 149.538 157.025 152.275 149.871C154.711 143.424 155.011 132.283 147.825 128.337C140.639 124.39 132.51 129.059 132.088 136.53Z" fill="#FFC3BD"/>
<path d="M146.826 132.039C146.826 132.039 151.608 136.733 155.019 134.792C158.429 132.851 159.119 127.825 155.019 123.424C153.045 121.305 150.057 119.234 144.195 119.364C144.657 119.815 145.211 120.161 145.819 120.379C145.819 120.379 138.381 119.137 133.2 121.272C133.615 121.896 134.171 122.414 134.824 122.782C129.782 122.401 124.877 124.406 128.328 129.14C123.757 129.587 122.733 135.433 125.169 139.29C127.605 143.147 128.036 146.038 131.292 147.792C131.292 142.538 132.502 141.296 132.502 141.296C134.849 140.297 137.552 135.295 137.008 132.77C142.027 134.792 147.378 135.458 146.826 132.039Z" fill="#263238"/>
<path d="M129.53 128.97C127.939 127.836 126.703 126.273 125.966 124.463C125.381 127.078 128.085 130.058 128.085 130.058L129.53 128.97Z" fill="#263238"/>
<path d="M128.353 140.614C128.409 142.326 129.08 143.961 130.245 145.218C131.796 146.842 133.907 145.462 134.305 143.375C134.63 141.499 133.834 138.633 131.869 137.788C129.904 136.944 128.296 138.519 128.353 140.614Z" fill="#FFC3BD"/>
<path d="M144.333 140.387C144.212 141.004 144.431 141.58 144.829 141.678C145.227 141.775 145.641 141.353 145.779 140.736C145.917 140.119 145.681 139.542 145.283 139.445C144.886 139.347 144.455 139.778 144.333 140.387Z" fill="#263238"/>
<path d="M151.235 142.035C151.105 142.652 151.332 143.221 151.73 143.318C152.128 143.415 152.542 142.993 152.68 142.376C152.818 141.759 152.575 141.182 152.177 141.093C151.779 141.004 151.357 141.418 151.235 142.035Z" fill="#263238"/>
<path d="M148.937 141.986C149.117 143.755 149.532 145.492 150.171 147.151C149.035 147.727 147.605 146.858 147.605 146.858L148.937 141.986Z" fill="#ED847E"/>
<path d="M146.33 150.309C145.615 150.16 144.938 149.867 144.339 149.448C143.741 149.029 143.233 148.494 142.847 147.873C142.831 147.852 142.821 147.827 142.815 147.801C142.81 147.776 142.81 147.749 142.816 147.723C142.822 147.697 142.833 147.673 142.849 147.652C142.865 147.631 142.885 147.613 142.908 147.6C142.931 147.588 142.957 147.58 142.983 147.578C143.01 147.576 143.036 147.579 143.061 147.588C143.086 147.597 143.109 147.611 143.128 147.63C143.147 147.648 143.162 147.67 143.172 147.695C143.602 148.358 144.179 148.913 144.857 149.318C145.536 149.724 146.298 149.968 147.086 150.033C147.11 150.034 147.133 150.04 147.154 150.051C147.176 150.061 147.195 150.076 147.21 150.095C147.226 150.113 147.237 150.134 147.243 150.157C147.25 150.18 147.251 150.204 147.248 150.228C147.247 150.252 147.241 150.276 147.231 150.298C147.22 150.32 147.205 150.339 147.187 150.355C147.169 150.371 147.148 150.383 147.125 150.391C147.102 150.398 147.077 150.401 147.053 150.399C146.811 150.383 146.569 150.353 146.33 150.309Z" fill="#263238"/>
<path d="M143.424 137.902C143.367 137.879 143.317 137.843 143.277 137.796C143.216 137.721 143.187 137.624 143.196 137.527C143.205 137.429 143.252 137.34 143.326 137.277C143.766 136.897 144.292 136.632 144.859 136.505C145.425 136.377 146.014 136.391 146.574 136.546C146.667 136.577 146.743 136.644 146.787 136.731C146.83 136.819 146.837 136.92 146.806 137.013C146.774 137.105 146.708 137.182 146.62 137.225C146.533 137.269 146.431 137.275 146.339 137.244C145.898 137.132 145.437 137.129 144.994 137.233C144.552 137.338 144.141 137.548 143.797 137.845C143.746 137.888 143.684 137.915 143.618 137.926C143.552 137.936 143.485 137.927 143.424 137.902Z" fill="#263238"/>
<path d="M152.087 138.04C152.075 137.981 152.075 137.92 152.087 137.861C152.115 137.768 152.178 137.689 152.263 137.641C152.347 137.593 152.447 137.579 152.542 137.601C153.101 137.751 153.616 138.034 154.04 138.428C154.465 138.821 154.787 139.312 154.978 139.859C154.991 139.905 154.996 139.954 154.99 140.002C154.985 140.05 154.97 140.096 154.947 140.139C154.924 140.181 154.892 140.218 154.854 140.248C154.816 140.278 154.773 140.3 154.726 140.314C154.68 140.327 154.631 140.331 154.583 140.326C154.535 140.321 154.489 140.306 154.446 140.283C154.404 140.259 154.367 140.228 154.337 140.19C154.307 140.152 154.285 140.108 154.271 140.062C154.115 139.634 153.857 139.252 153.518 138.948C153.18 138.643 152.772 138.426 152.331 138.316C152.271 138.294 152.217 138.257 152.174 138.209C152.132 138.16 152.102 138.102 152.087 138.04Z" fill="#263238"/>
<path d="M120.022 168.798C118.463 173.248 116.904 177.885 115.515 182.432C114.809 184.705 114.167 186.987 113.591 189.236C113.032 191.397 112.598 193.587 112.291 195.797C112.291 196.041 112.226 196.309 112.218 196.544V196.902C112.218 197.015 112.218 197.186 112.218 197.129C112.218 197.072 112.153 197.178 112.218 197.348C112.424 197.969 112.759 198.539 113.201 199.021C114.596 200.565 116.178 201.929 117.91 203.081C121.821 205.717 125.903 208.088 130.131 210.178L128.393 215.18C125.877 214.631 123.396 213.931 120.964 213.085C118.485 212.236 116.066 211.224 113.721 210.056C111.149 208.802 108.77 207.186 106.656 205.257C105.313 204.02 104.231 202.526 103.473 200.864C103 199.797 102.725 198.652 102.661 197.486C102.661 197.121 102.661 196.991 102.661 196.796V196.228C102.661 195.846 102.661 195.497 102.661 195.132C102.801 192.428 103.14 189.738 103.676 187.085C104.163 184.519 104.772 182.034 105.43 179.566C106.748 174.663 108.322 169.833 110.148 165.096L120.022 168.798Z" fill="#FFC3BD"/>
<path d="M117.74 157.601C125.682 157.528 127.184 163.707 122.864 173.5C121.211 177.039 119.192 180.394 116.839 183.512L103.709 176.537C105.463 168.717 108.67 157.682 117.74 157.601Z" fill="#535353"/>
<path d="M139.664 209.399L136.757 207.775C136.281 207.514 135.735 207.411 135.198 207.482L131.706 207.969C129.359 208.213 127.646 210.008 126.371 211.567L124.885 213.386C124.812 217.056 134.085 216.195 134.085 216.195L142.205 216.089L141.953 212.89C141.889 212.165 141.647 211.466 141.247 210.857C140.848 210.248 140.304 209.747 139.664 209.399Z" fill="#FFC3BD"/>
<path d="M312.896 214.279H93.0957V224.567H312.896V214.279Z" fill="#535353"/>
<path opacity="0.3" d="M164.389 214.279H93.0957V224.567H164.389V214.279Z" fill="white"/>
<path d="M98.9828 224.567H95.6211V337.987H98.9828V224.567Z" fill="#535353"/>
<path opacity="0.7" d="M98.9828 224.567H95.6211V337.987H98.9828V224.567Z" fill="white"/>
<path d="M161.872 224.567H158.511V337.987H161.872V224.567Z" fill="#535353"/>
<path opacity="0.7" d="M161.872 224.567H158.511V337.987H161.872V224.567Z" fill="white"/>
<path d="M247.49 224.567H244.128V337.987H247.49V224.567Z" fill="#535353"/>
<path opacity="0.7" d="M247.49 224.567H244.128V337.987H247.49V224.567Z" fill="white"/>
<path d="M310.379 224.567H307.018V337.987H310.379V224.567Z" fill="#535353"/>
<path opacity="0.7" d="M310.379 224.567H307.018V337.987H310.379V224.567Z" fill="white"/>
<path d="M289.072 168.807H228.984C227.954 168.844 226.968 169.23 226.186 169.901C225.404 170.572 224.873 171.489 224.681 172.501L218.412 210.576C218.316 211.03 218.324 211.5 218.436 211.95C218.548 212.4 218.76 212.819 219.057 213.175C219.354 213.532 219.728 213.816 220.151 214.007C220.573 214.198 221.034 214.291 221.498 214.279H281.586C282.618 214.243 283.607 213.857 284.391 213.184C285.175 212.511 285.706 211.591 285.897 210.576L292.166 172.501C292.262 172.047 292.254 171.577 292.142 171.127C292.03 170.676 291.816 170.257 291.518 169.901C291.22 169.545 290.845 169.262 290.421 169.072C289.998 168.882 289.536 168.792 289.072 168.807Z" fill="#263238"/>
<path d="M250.916 211.794H194.344C193.972 211.794 193.67 212.096 193.67 212.468V213.605C193.67 213.977 193.972 214.279 194.344 214.279H250.916C251.288 214.279 251.59 213.977 251.59 213.605V212.468C251.59 212.096 251.288 211.794 250.916 211.794Z" fill="#263238"/>
<path opacity="0.2" d="M289.072 168.807H230.3C229.27 168.844 228.283 169.23 227.501 169.901C226.719 170.572 226.189 171.489 225.996 172.501L219.727 210.576C219.63 211.03 219.637 211.5 219.748 211.951C219.859 212.402 220.071 212.822 220.369 213.179C220.666 213.535 221.041 213.82 221.464 214.01C221.888 214.201 222.349 214.293 222.813 214.279H281.545C282.577 214.243 283.567 213.857 284.351 213.184C285.134 212.511 285.665 211.591 285.857 210.576L292.125 172.501C292.221 172.051 292.213 171.584 292.103 171.137C291.993 170.689 291.784 170.272 291.49 169.917C291.197 169.562 290.827 169.278 290.408 169.086C289.99 168.893 289.533 168.798 289.072 168.807Z" fill="white"/>
<path d="M133.541 211.794C133.541 211.794 152.891 214.677 162.229 210.868C166.598 212.971 182.155 214.011 187.571 211.794C185.899 213.735 181.969 214.279 181.969 214.279H141.149C137.227 214.279 134.231 212.565 133.541 211.794Z" fill="#535353"/>
<path opacity="0.7" d="M133.541 211.794C133.541 211.794 152.891 214.677 162.229 210.868C166.598 212.971 182.155 214.011 187.571 211.794C185.899 213.735 181.969 214.279 181.969 214.279H141.149C137.227 214.279 134.231 212.565 133.541 211.794Z" fill="white"/>
</svg>
