<svg width="76" height="76" viewBox="0 0 76 76" fill="none" xmlns="http://www.w3.org/2000/svg">
<path d="M73.5682 0.573242H33.1675C31.8234 0.573242 30.7363 1.67271 30.7363 3.02583V20.3248L32.4941 18.2527C33.3289 17.2675 34.4293 16.66 35.5989 16.4062V5.47747H71.1367V37.5018H35.599V32.141L34.5042 33.4318C33.5474 34.5575 32.1968 35.2559 30.7363 35.3936V39.9536C30.7363 41.3068 31.8234 42.4048 33.1675 42.4048H46.2885L39.6225 72.9176C39.3238 74.2859 40.1816 75.6392 41.5398 75.9411C42.8858 76.2392 44.2392 75.3773 44.535 74.0104L51.4391 42.405H55.4526L62.3567 74.0104C62.6155 75.1936 63.6564 76.0011 64.8109 75.9996C64.9901 75.9996 65.1734 75.9813 65.3548 75.9411C66.713 75.6392 67.5705 74.2861 67.2693 72.9176L60.6039 42.4048H73.5683C74.9112 42.4048 75.9995 41.3068 75.9995 39.9536V3.02583C75.9994 1.67271 74.911 0.573242 73.5682 0.573242Z" fill="#989898"/>
<path d="M54.2561 14.8935C54.0644 14.4065 53.5212 14.1674 53.0385 14.3602L38.7148 19.4575C37.4002 18.4313 35.5035 18.6146 34.4073 19.9001L29.8622 25.2515L25.832 21.7685C25.8586 22.0561 25.919 22.3356 25.919 22.6308V30.1919L28.1612 32.1289C29.4918 33.2779 31.4822 33.1003 32.5948 31.7848L38.0057 25.4054L42.3696 22.8315L53.854 16.057C54.2511 15.8262 54.4271 15.333 54.2561 14.8935Z" fill="#989898"/>
<path d="M17.0717 16.2495H14.3724C12.3057 16.2495 10.4884 17.2622 9.33333 18.8059L1.04787 26.4969C-0.243128 27.6563 -0.360223 29.6647 0.802339 30.9741L7.56215 38.5813C8.71462 39.8823 10.7096 39.9974 12.0004 38.8281C13.2947 37.6586 13.404 35.6555 12.2442 34.3522L7.58483 29.1063L14.203 23.1355L10.3485 28.4154L14.119 32.6596C16.2025 35.007 16.006 38.6137 13.6789 40.7159C12.09 42.152 9.92175 42.4889 8.04202 41.8266C8.04202 41.8266 8.07122 56.4912 8.07122 72.1962C8.07122 74.2968 9.75993 75.9995 11.8436 75.9995C13.925 75.9995 15.6159 74.2968 15.6159 72.1962C15.6159 56.4961 15.6159 65.4555 15.6159 49.5287H18.1322C18.1322 65.4439 18.1322 56.4912 18.1322 72.1962C18.1322 73.2928 17.8289 74.3083 17.3453 75.2072C17.9783 75.6981 18.766 75.9995 19.6245 75.9995C21.7092 75.9995 23.3979 74.2968 23.3979 72.1962C23.3979 56.4961 23.4027 63.0777 23.4027 22.6307C23.403 19.1064 20.5693 16.2495 17.0717 16.2495Z" fill="#989898"/>
<path d="M12.3608 13.9669C13.3695 14.4955 14.5019 14.8236 15.7184 14.8236C16.9379 14.8236 18.0704 14.4955 19.082 13.966C21.4431 12.7327 23.0707 10.2772 23.0707 7.41146C23.0707 3.31766 19.779 0 15.7182 0C11.6581 0 8.36719 3.31766 8.36719 7.41146C8.36734 10.2788 9.99658 12.7352 12.3608 13.9669Z" fill="#989898"/>
</svg>
