<svg width="76" height="76" viewBox="0 0 76 76" fill="none" xmlns="http://www.w3.org/2000/svg">
<path d="M17.3281 34.371C17.3281 37.8214 19.4285 40.8005 22.4511 41.6603C24.7166 47.9493 30.7004 52.1661 37.3813 52.1661C44.0622 52.1661 50.046 47.9493 52.3111 41.6603C55.3341 40.8005 57.4345 37.8226 57.4345 34.371C57.4345 32.0418 56.4349 29.8211 54.7535 28.3966L55.0001 27.0724C55.0001 26.5792 54.9661 26.0975 54.9272 25.6146L54.8957 25.2297L54.5672 25.4337C49.9848 28.2757 42.5609 29.5469 37.2366 29.5469C32.0635 29.5469 24.7834 28.3276 20.1808 25.6032L19.8455 25.5156L19.8176 25.8947C19.7891 26.2854 19.7606 26.6749 19.7646 27.1164L20.0068 28.4002C18.3268 29.8246 17.3281 32.0442 17.3281 34.371Z" fill="#FF725E"/>
<path d="M52.8655 56.5662C51.4353 55.68 50.0846 54.8433 48.9909 53.9789L48.8519 53.8694L48.7076 53.972C47.6853 54.7014 44.0757 58.4503 41.1338 61.5678L39.5092 58.4101L40.3548 57.8051V54.7095H34.407V57.8051L35.2526 58.4101L33.6274 61.569C30.6846 58.4505 27.0733 54.7015 26.052 53.972L25.9076 53.8694L25.7685 53.9789C24.6748 54.8433 23.3239 55.68 21.894 56.5662C17.4365 59.3286 12.3848 62.4587 12.3848 68.0469C12.3848 71.3488 20.1393 76.0001 37.3799 76.0001C54.6203 76.0001 62.375 71.3488 62.375 68.0469C62.3747 62.4587 57.3226 59.3286 52.8655 56.5662Z" fill="#FF725E"/>
<path d="M19.5444 19.5676C19.5444 22.3358 27.8744 25.8474 37.2364 25.8474C46.5983 25.8474 54.9283 22.336 54.9283 19.5676V15.7519L61.3858 13.1243V21.4311C60.6335 21.5487 60.0552 22.2009 60.0552 22.9823C60.0552 23.6507 60.4955 24.2339 61.1302 24.4447L59.8458 32.9221H65.8878L64.6036 24.4447C65.2374 24.2338 65.6771 23.6505 65.6771 22.9823C65.6771 22.1963 65.0954 21.5429 64.3391 21.4287L64.3079 11.4542C64.3609 11.362 64.3609 11.2663 64.3609 11.2156C64.3609 11.1649 64.3609 11.0705 64.3388 11.0705H64.3385C64.2996 10.7074 64.04 10.3859 63.6616 10.2315L61.9508 9.53088L39.7142 0.480641C38.9438 0.165953 38.0872 0 37.2364 0C36.3855 0 35.529 0.165953 34.7589 0.480641L10.8109 10.2327C10.3859 10.4067 10.1113 10.7927 10.1113 11.2156C10.1113 11.6375 10.3856 12.0236 10.8114 12.1998L19.5444 15.7516V19.5676Z" fill="#FF725E"/>
</svg>
