<svg width="27" height="21" viewBox="0 0 27 21" fill="none" xmlns="http://www.w3.org/2000/svg">
<path d="M26.5436 4.08096H26.5196C26.0564 4.08392 25.9846 3.68074 25.9766 3.49355V0.565811C25.9766 0.25326 25.7239 0 25.4129 0H17.0612C14.9658 0 14.1841 0.778414 13.9902 1.02278L13.9369 1.09689L13.9365 1.09817L13.7713 1.32517C13.5494 1.63052 13.3559 1.5005 13.2629 1.40055L12.9469 1.00542L12.7905 0.81653C12.5277 0.539977 11.8428 0 10.4851 0H1.58751C1.27567 0 1.02299 0.25326 1.02299 0.565811V3.45628C1.02299 3.96237 0.748756 4.06401 0.580581 4.08096H0.455507C0.318601 4.08943 0 4.16905 0 4.75646V18.5329C0 18.8708 0.273389 19.1444 0.610582 19.1444H8.73112C11.3218 19.1444 12.4508 20.1236 12.7893 20.4992L12.9824 20.7389C12.9824 20.7389 13.5008 21.3263 14.0468 20.7389L14.16 20.6059L14.1617 20.6051L14.3062 20.4357C14.3104 20.4306 14.3451 20.3916 14.3954 20.34C14.8276 19.9186 15.9081 19.1444 18.0208 19.1444H26.3894C26.727 19.1444 27 18.8708 27 18.5329V4.62305C27 4.125 26.6404 4.0835 26.5436 4.08096ZM24.7191 16.3713C24.7191 16.6427 24.493 16.8617 24.2116 16.8617H17.3262C14.8758 16.8617 13.9864 17.9713 13.9864 17.9713L13.8735 18.1229L13.8207 18.1962C13.587 18.5142 13.2431 18.1987 13.2414 18.197L13.0829 17.9984C12.9655 17.8569 12.0654 16.8613 9.88721 16.8613H2.7884C2.50825 16.8613 2.28176 16.6419 2.28176 16.3708V1.69108C2.28176 1.42003 2.50825 1.20065 2.7884 1.20065H8.2997C12.3993 1.20065 12.7876 3.53463 12.8142 4.21267V14.4218C12.8142 15.1638 13.167 15.3032 13.3661 15.3235H13.6623C13.8651 15.3032 14.1875 15.1825 14.1875 14.6035V4.08096H14.1841C14.2145 3.23182 14.545 1.20023 17.0105 1.20023H24.2116C24.493 1.20023 24.7191 1.41961 24.7191 1.69066V16.3713Z" fill="#241F20"/>
</svg>
